<svg width="70" height="70" viewBox="0 0 70 70" fill="none" xmlns="http://www.w3.org/2000/svg">
<g filter="url(#filter0_d_103_718)">
<rect x="10" y="10" width="50" height="50" rx="4" fill="white"/>
</g>
<path d="M36.8261 38.3133C36.9499 38.3133 37.0686 38.2641 37.1561 38.1766C37.2436 38.0891 37.2928 37.9704 37.2928 37.8466V36.4517H37.9149C38.2363 36.7593 38.6157 36.9997 39.0309 37.1591C39.4462 37.3185 39.8891 37.3936 40.3337 37.3801C40.7783 37.3666 41.2158 37.2647 41.6206 37.0804C42.0254 36.8961 42.3895 36.6331 42.6917 36.3066C42.7737 36.2199 42.8195 36.1051 42.8195 35.9858C42.8195 35.8664 42.7737 35.7516 42.6917 35.6649C42.3766 35.3265 41.9952 35.0566 41.5713 34.872C41.1474 34.6873 40.6901 34.5919 40.2277 34.5916C39.3662 34.5931 38.5383 34.9258 37.9153 35.5207H36.8261C36.7024 35.5207 36.5837 35.5699 36.4961 35.6574C36.4086 35.7449 36.3595 35.8636 36.3595 35.9874V37.38H35.5923V34.8651C35.8184 34.9895 36.072 35.0557 36.3301 35.0578C36.7189 35.0471 37.0923 34.9038 37.3884 34.6516C37.6845 34.3994 37.8854 34.0535 37.9578 33.6713C38.3259 33.5563 38.6467 33.3248 38.8718 33.0117C39.097 32.6987 39.2143 32.3209 39.2061 31.9353C39.206 31.8683 39.2021 31.8013 39.1945 31.7347C39.4778 31.5298 39.7085 31.2606 39.8676 30.9493C40.0267 30.6379 40.1097 30.2932 40.1097 29.9436C40.1097 29.5939 40.0267 29.2493 39.8676 28.9379C39.7085 28.6265 39.4778 28.3574 39.1945 28.1525C39.2021 28.0857 39.206 28.0186 39.2061 27.9514C39.2143 27.5659 39.0969 27.1882 38.8718 26.8752C38.6466 26.5622 38.3259 26.3308 37.9578 26.2158C37.8853 25.8338 37.6843 25.488 37.3882 25.2358C37.0922 24.9836 36.7188 24.8402 36.3301 24.8294C36.1012 24.8314 35.8755 24.8821 35.6678 24.9782C35.4601 25.0743 35.2753 25.2135 35.1256 25.3866C34.9759 25.2135 34.7911 25.0743 34.5834 24.9782C34.3757 24.8821 34.1499 24.8314 33.9211 24.8294C33.5322 24.84 33.1586 24.9833 32.8624 25.2355C32.5661 25.4877 32.365 25.8336 32.2924 26.2158C31.9243 26.331 31.6035 26.5628 31.3785 26.8761C31.1535 27.1895 31.0365 27.5676 31.045 27.9532C31.0452 28.0205 31.0491 28.0876 31.0567 28.1544C30.7733 28.3592 30.5426 28.6284 30.3835 28.9398C30.2244 29.2511 30.1415 29.5958 30.1415 29.9455C30.1415 30.2951 30.2244 30.6398 30.3835 30.9511C30.5426 31.2625 30.7733 31.5317 31.0567 31.7365C31.0491 31.8031 31.0452 31.8701 31.045 31.9372C31.0369 32.3228 31.1542 32.7005 31.3794 33.0136C31.6045 33.3267 31.9253 33.5582 32.2934 33.6732C32.3658 34.0554 32.5667 34.4013 32.8628 34.6535C33.1589 34.9057 33.5323 35.049 33.9211 35.0597C34.1792 35.0575 34.4328 34.9913 34.6589 34.8669V38.7734H33.8917V37.38C33.8917 37.2562 33.8426 37.1375 33.755 37.05C33.6675 36.9625 33.5488 36.9133 33.4251 36.9133H32.3363C32.0149 36.6058 31.6355 36.3654 31.2202 36.206C30.8049 36.0467 30.362 35.9716 29.9174 35.9852C29.4728 35.9987 29.0353 36.1006 28.6305 36.285C28.2257 36.4693 27.8616 36.7324 27.5595 37.0589C27.4774 37.1456 27.4317 37.2604 27.4317 37.3797C27.4317 37.4991 27.4774 37.6139 27.5595 37.7006C27.8615 38.0271 28.2256 38.2903 28.6304 38.4747C29.0352 38.6591 29.4727 38.7611 29.9173 38.7747C30.3619 38.7883 30.8048 38.7133 31.2201 38.5539C31.6354 38.3946 32.0149 38.1541 32.3363 37.8466H32.9584V39.2387C32.9584 39.3625 33.0075 39.4812 33.0951 39.5687C33.1826 39.6562 33.3013 39.7054 33.4251 39.7054H34.6589V40.6312H28.8018C28.678 40.6312 28.5593 40.6804 28.4718 40.7679C28.3843 40.8554 28.3351 40.9741 28.3351 41.0979C28.3351 42.7312 29.786 44.1196 31.9527 44.8112C31.9514 44.8719 31.962 44.9323 31.984 44.9889C32.006 45.0455 32.039 45.0973 32.081 45.1411L32.7045 45.7828C33.3042 46.3997 33.3042 46.9495 32.7045 47.5664L32.0806 48.2067C32.0162 48.2724 31.9726 48.3557 31.9554 48.4461C31.9382 48.5364 31.9481 48.6299 31.9839 48.7147C32.0196 48.7995 32.0796 48.8718 32.1564 48.9226C32.2331 48.9733 32.3232 49.0003 32.4152 49H37.836C37.928 49.0003 38.0181 48.9733 38.0948 48.9226C38.1715 48.8718 38.2316 48.7995 38.2673 48.7147C38.3031 48.6299 38.313 48.5364 38.2958 48.4461C38.2786 48.3557 38.235 48.2724 38.1706 48.2067L37.5462 47.5645C36.947 46.9476 36.947 46.3979 37.5462 45.7809L38.1725 45.1406C38.2145 45.0968 38.2475 45.0451 38.2695 44.9885C38.2915 44.9318 38.3022 44.8714 38.3008 44.8107C40.4675 44.1191 41.9184 42.7331 41.9184 41.0974C41.9184 40.9737 41.8693 40.855 41.7817 40.7674C41.6942 40.6799 41.5755 40.6308 41.4517 40.6308H35.5923V38.3133H36.8261ZM41.6482 35.9874C41.2325 36.281 40.7361 36.4385 40.2272 36.4385C39.7183 36.4385 39.2219 36.281 38.8062 35.9874C39.2217 35.6935 39.7179 35.5355 40.2268 35.5351C40.7357 35.5347 41.2323 35.6919 41.6482 35.9851V35.9874ZM28.6025 37.38C29.0183 37.0864 29.5148 36.9288 30.0237 36.9288C30.5327 36.9288 31.0292 37.0864 31.445 37.38C31.0294 37.6739 30.5328 37.8318 30.0237 37.8318C29.5147 37.8318 29.0181 37.6739 28.6025 37.38ZM35.1256 44.1732C34.2987 43.4114 33.5882 42.5323 33.0167 41.5641H37.2345C36.663 42.5323 35.9524 43.4114 35.1256 44.1732ZM29.3314 41.5641H32.0297C32.2938 42.441 33.188 43.5129 33.9099 44.2708C31.5654 43.9847 29.6926 42.8922 29.3314 41.5641ZM36.7393 45.2821C36.3701 45.6514 36.1628 46.1522 36.1628 46.6744C36.1628 47.1965 36.3701 47.6974 36.7393 48.0667H33.5114C33.6943 47.8839 33.8394 47.6668 33.9384 47.4279C34.0374 47.189 34.0883 46.933 34.0883 46.6744C34.0883 46.4158 34.0374 46.1597 33.9384 45.9208C33.8394 45.6819 33.6943 45.4648 33.5114 45.2821H36.7393ZM36.3413 44.2722C37.0632 43.5129 37.9573 42.441 38.2215 41.5655H40.9197C40.5585 42.8922 38.6858 43.9847 36.3413 44.2722ZM33.9211 34.1245C33.7392 34.1128 33.5671 34.0375 33.435 33.9119C33.3029 33.7862 33.2191 33.6182 33.1982 33.4371C33.2187 33.4331 33.2395 33.4317 33.2603 33.4329C33.3337 33.4485 33.4029 33.4797 33.4633 33.5243C33.5236 33.5689 33.5738 33.6259 33.6103 33.6914L34.3822 33.1664C34.2709 32.9878 34.1216 32.836 33.945 32.7216C33.7683 32.6072 33.5687 32.5332 33.3602 32.5047C33.0489 32.4744 32.7376 32.5618 32.4875 32.7497C32.331 32.6804 32.1988 32.5657 32.108 32.4206C32.0173 32.2754 31.9721 32.1064 31.9784 31.9353C31.9814 31.8451 31.9971 31.7557 32.025 31.6698C32.165 31.4481 32.2971 31.3394 32.3764 31.3394H32.3792C32.4632 31.3422 32.6779 31.4794 32.8898 31.9834L33.7499 31.6217C33.3154 30.5871 32.7232 30.4168 32.4082 30.4084C32.2273 30.4113 32.0493 30.4535 31.8864 30.5322C31.7235 30.6108 31.5798 30.724 31.465 30.8639C31.342 30.7446 31.2441 30.6019 31.1773 30.4441C31.1105 30.2864 31.0761 30.1168 31.0761 29.9455C31.0761 29.7741 31.1105 29.6045 31.1773 29.4468C31.2441 29.289 31.342 29.1463 31.465 29.0271C31.5756 29.164 31.7144 29.2756 31.8719 29.3542C32.0294 29.4327 32.2019 29.4765 32.3778 29.4825H32.4086C32.7232 29.4727 33.3159 29.3019 33.7503 28.2692L32.8902 27.9075C32.6784 28.4106 32.4637 28.5487 32.3797 28.551C32.3074 28.5548 32.1669 28.4446 32.025 28.2183C31.9974 28.1332 31.9817 28.0446 31.9784 27.9551C31.9722 27.7845 32.0172 27.616 32.1075 27.4711C32.1978 27.3263 32.3293 27.2117 32.4852 27.1422C32.7015 27.3022 32.9628 27.3899 33.2318 27.3928C33.2753 27.3929 33.3188 27.3907 33.3621 27.3862C33.5706 27.3576 33.7703 27.2833 33.9469 27.1688C34.1235 27.0543 34.2728 26.9023 34.3841 26.7236L33.6122 26.1995C33.5756 26.265 33.5254 26.3219 33.4651 26.3665C33.4047 26.4111 33.3355 26.4423 33.2622 26.458C33.2414 26.4588 33.2206 26.4574 33.2001 26.4538C33.22 26.2723 33.3031 26.1036 33.435 25.9772C33.5668 25.8508 33.7389 25.7749 33.9211 25.7627C34.1326 25.7806 34.3286 25.881 34.4666 26.0422C34.6047 26.2034 34.6738 26.4124 34.6589 26.6242V27.2878H35.5923V26.6242C35.5774 26.4124 35.6465 26.2034 35.7845 26.0422C35.9226 25.881 36.1186 25.7806 36.3301 25.7627C36.512 25.7744 36.6839 25.8497 36.816 25.9753C36.948 26.101 37.0317 26.269 37.0525 26.4501C37.032 26.4539 37.0112 26.4553 36.9904 26.4543C36.917 26.4385 36.8478 26.4072 36.7875 26.3625C36.7271 26.3179 36.677 26.2609 36.6404 26.1953L35.8685 26.7203C35.9799 26.8989 36.1292 27.0507 36.3058 27.1652C36.4824 27.2796 36.6821 27.3538 36.8905 27.3825C36.9338 27.387 36.9772 27.3892 37.0207 27.389C37.2898 27.3862 37.5511 27.2985 37.7674 27.1384C37.9233 27.2083 38.0548 27.3233 38.1448 27.4685C38.2349 27.6137 38.2795 27.7825 38.2728 27.9532C38.2697 28.0443 38.254 28.1344 38.2261 28.2211C38.0861 28.4451 37.9569 28.5548 37.8719 28.5478C37.787 28.5408 37.5733 28.4078 37.3619 27.9042L36.5013 28.2659C36.9358 29.3001 37.528 29.4709 37.843 29.4793H37.8738C38.0497 29.4733 38.2223 29.4295 38.3798 29.3509C38.5373 29.2723 38.676 29.1607 38.7866 29.0238C38.9097 29.143 39.0075 29.2858 39.0744 29.4436C39.1412 29.6014 39.1756 29.771 39.1756 29.9424C39.1756 30.1138 39.1412 30.2834 39.0744 30.4412C39.0075 30.599 38.9097 30.7418 38.7866 30.8611C38.6711 30.7221 38.5271 30.6096 38.3644 30.5309C38.2017 30.4523 38.0241 30.4094 37.8435 30.4051C37.5289 30.4154 36.9363 30.5857 36.5018 31.6185L37.3623 31.9801C37.5737 31.4771 37.7884 31.3389 37.8724 31.3361C37.9494 31.3394 38.0866 31.4449 38.2271 31.6684C38.2547 31.7537 38.2704 31.8424 38.2737 31.9321C38.2799 32.1031 38.2347 32.2721 38.144 32.4173C38.0532 32.5624 37.9211 32.6771 37.7646 32.7464C37.515 32.5576 37.2033 32.4701 36.8919 32.5014C36.6835 32.53 36.4839 32.6041 36.3073 32.7185C36.1307 32.8329 35.9813 32.9847 35.8699 33.1631L36.6409 33.6933C36.6774 33.6277 36.7275 33.5707 36.7879 33.5261C36.8483 33.4816 36.9175 33.4504 36.9909 33.4347C37.0116 33.4334 37.0325 33.4346 37.0529 33.4385C37.0322 33.6197 36.9484 33.7878 36.8163 33.9136C36.6842 34.0393 36.5121 34.1146 36.3301 34.1263C36.1186 34.1085 35.9226 34.0081 35.7845 33.8469C35.6465 33.6857 35.5774 33.4766 35.5923 33.2649V32.5989H34.6589V33.263C34.6738 33.4747 34.6047 33.6838 34.4666 33.845C34.3286 34.0062 34.1326 34.1066 33.9211 34.1245ZM23.828 27.3629C23.8501 27.4677 23.9075 27.5616 23.9907 27.6291C24.0738 27.6965 24.1776 27.7333 24.2846 27.7333C24.3917 27.7333 24.4955 27.6965 24.5786 27.6291C24.6618 27.5616 24.7192 27.4677 24.7413 27.3629C25.1445 25.4496 25.3517 25.2358 27.2048 24.8214C27.3082 24.7981 27.4005 24.7404 27.4666 24.6576C27.5328 24.5749 27.5688 24.4721 27.5688 24.3662C27.5688 24.2603 27.5328 24.1575 27.4666 24.0748C27.4005 23.992 27.3082 23.9343 27.2048 23.911C25.3517 23.4975 25.1445 23.2838 24.7413 21.3704C24.7192 21.2657 24.6618 21.1717 24.5786 21.1042C24.4955 21.0368 24.3917 21 24.2846 21C24.1776 21 24.0738 21.0368 23.9907 21.1042C23.9075 21.1717 23.8501 21.2657 23.828 21.3704C23.4243 23.2838 23.2171 23.4975 21.364 23.911C21.2607 23.9343 21.1683 23.992 21.1022 24.0748C21.036 24.1575 21 24.2603 21 24.3662C21 24.4721 21.036 24.5749 21.1022 24.6576C21.1683 24.7404 21.2607 24.7981 21.364 24.8214C23.2171 25.2358 23.4257 25.4496 23.828 27.3629ZM24.2844 23.1162C24.5166 23.6786 24.9601 24.1275 25.5197 24.3664C24.9601 24.6056 24.5167 25.0546 24.2844 25.6171C24.0522 25.0548 23.6089 24.6058 23.0496 24.3664C23.609 24.1274 24.0523 23.6785 24.2844 23.1162ZM41.778 30.8727C41.7779 30.9788 41.8141 31.0818 41.8804 31.1645C41.9468 31.2473 42.0393 31.3051 42.1429 31.3282C43.996 31.7426 44.2032 31.9563 44.6064 33.8692C44.6285 33.974 44.6859 34.0679 44.7691 34.1354C44.8522 34.2028 44.956 34.2396 45.0631 34.2396C45.1701 34.2396 45.2739 34.2028 45.3571 34.1354C45.4402 34.0679 45.4976 33.974 45.5197 33.8692C45.9234 31.9559 46.1306 31.7426 47.9837 31.3282C48.087 31.3049 48.1794 31.2471 48.2455 31.1644C48.3117 31.0817 48.3477 30.9789 48.3477 30.873C48.3477 30.767 48.3117 30.6643 48.2455 30.5815C48.1794 30.4988 48.087 30.441 47.9837 30.4177C46.1306 30.0038 45.9234 29.7901 45.5197 27.8767C45.4976 27.772 45.4402 27.678 45.3571 27.6105C45.2739 27.5431 45.1701 27.5063 45.0631 27.5063C44.956 27.5063 44.8522 27.5431 44.7691 27.6105C44.6859 27.678 44.6285 27.772 44.6064 27.8767C44.2032 29.7901 43.996 30.0038 42.1429 30.4177C42.0394 30.4408 41.9469 30.4985 41.8806 30.5812C41.8142 30.6639 41.7781 30.7667 41.778 30.8727ZM45.0633 29.623C45.2954 30.1851 45.7388 30.6338 46.2981 30.8727C45.7388 31.1121 45.2955 31.5611 45.0633 32.1234C44.831 31.5609 44.3876 31.1119 43.828 30.8727C44.3876 30.634 44.8311 30.1853 45.0633 29.623ZM25.1879 36.3033C25.295 36.3034 25.3989 36.2666 25.4821 36.1991C25.5652 36.1317 25.6227 36.0376 25.6448 35.9328C25.936 34.5505 26.0676 34.4152 27.4036 34.1165C27.507 34.0932 27.5993 34.0355 27.6654 33.9527C27.7316 33.87 27.7676 33.7672 27.7676 33.6613C27.7676 33.5554 27.7316 33.4526 27.6654 33.3699C27.5993 33.2871 27.507 33.2294 27.4036 33.2061C26.0676 32.9079 25.936 32.7725 25.6448 31.3903C25.6227 31.2855 25.5652 31.1915 25.4821 31.1241C25.399 31.0566 25.2952 31.0198 25.1881 31.0198C25.0811 31.0198 24.9773 31.0566 24.8941 31.1241C24.811 31.1915 24.7536 31.2855 24.7315 31.3903C24.4398 32.7725 24.3082 32.9079 22.9721 33.2061C22.8688 33.2294 22.7765 33.2871 22.7103 33.3699C22.6442 33.4526 22.6081 33.5554 22.6081 33.6613C22.6081 33.7672 22.6442 33.87 22.7103 33.9527C22.7765 34.0355 22.8688 34.0932 22.9721 34.1165C24.3082 34.4152 24.4398 34.5505 24.7315 35.9328C24.7535 36.0375 24.8109 36.1315 24.894 36.199C24.9771 36.2664 25.0809 36.3033 25.1879 36.3033ZM24.5126 33.6615C24.7964 33.5006 25.0301 33.2643 25.1879 32.9788C25.3459 33.2642 25.5796 33.5004 25.8632 33.6615C25.5792 33.8233 25.3456 34.0604 25.1879 34.3466C25.0304 34.0602 24.7967 33.8231 24.5126 33.6615Z" fill="#00A9A8"/>
<path d="M35.1256 31.8603C35.2326 31.8604 35.3364 31.8236 35.4196 31.7563C35.5028 31.6889 35.5603 31.595 35.5824 31.4902C35.7644 30.6255 35.8041 30.5849 36.6366 30.3992C36.7402 30.376 36.8328 30.3183 36.8992 30.2355C36.9655 30.1527 37.0017 30.0498 37.0017 29.9437C37.0017 29.8376 36.9655 29.7346 36.8992 29.6518C36.8328 29.569 36.7402 29.5113 36.6366 29.4882C35.8041 29.3015 35.7644 29.2614 35.5824 28.3976C35.5606 28.2926 35.5032 28.1984 35.42 28.1307C35.3368 28.063 35.2328 28.0261 35.1256 28.0261C35.0183 28.0261 34.9143 28.063 34.8311 28.1307C34.7479 28.1984 34.6906 28.2926 34.6687 28.3976C34.4867 29.2614 34.4475 29.302 33.6145 29.4882C33.5109 29.5113 33.4183 29.569 33.352 29.6518C33.2856 29.7346 33.2495 29.8376 33.2495 29.9437C33.2495 30.0498 33.2856 30.1527 33.352 30.2355C33.4183 30.3183 33.5109 30.376 33.6145 30.3992C34.4475 30.5858 34.4867 30.6255 34.6687 31.4902C34.6909 31.595 34.7483 31.6889 34.8315 31.7563C34.9147 31.8236 35.0185 31.8604 35.1256 31.8603ZM35.1256 29.7687C35.1774 29.8327 35.2356 29.8913 35.2992 29.9437C35.2355 29.9958 35.1773 30.0543 35.1256 30.1182C35.0738 30.0543 35.0156 29.9958 34.952 29.9437C35.0155 29.8913 35.0737 29.8327 35.1256 29.7687ZM48.6342 23.4467C47.2981 23.1485 47.1665 23.0127 46.8749 21.6309C46.8528 21.5262 46.7954 21.4322 46.7122 21.3647C46.6291 21.2973 46.5253 21.2605 46.4182 21.2605C46.3112 21.2605 46.2074 21.2973 46.1243 21.3647C46.0411 21.4322 45.9837 21.5262 45.9616 21.6309C45.6704 23.0127 45.5388 23.1485 44.2027 23.4467C44.0994 23.47 44.0071 23.5278 43.9409 23.6105C43.8748 23.6933 43.8387 23.796 43.8387 23.902C43.8387 24.0079 43.8748 24.1107 43.9409 24.1934C44.0071 24.2761 44.0994 24.3339 44.2027 24.3572C45.5388 24.6554 45.6704 24.7912 45.9616 26.173C45.9837 26.2778 46.0411 26.3717 46.1243 26.4392C46.2074 26.5066 46.3112 26.5434 46.4182 26.5434C46.5253 26.5434 46.6291 26.5066 46.7122 26.4392C46.7954 26.3717 46.8528 26.2778 46.8749 26.173C47.1665 24.7912 47.2981 24.6554 48.6342 24.3572C48.7376 24.3339 48.8299 24.2761 48.896 24.1934C48.9622 24.1107 48.9982 24.0079 48.9982 23.902C48.9982 23.796 48.9622 23.6933 48.896 23.6105C48.8299 23.5278 48.7376 23.47 48.6342 23.4467ZM46.4185 24.5849C46.2606 24.2993 46.0267 24.063 45.7427 23.9022C46.0265 23.7411 46.2603 23.5049 46.4185 23.2195C46.5766 23.5049 46.8104 23.7411 47.0942 23.9022C46.8102 24.063 46.5763 24.2993 46.4185 24.5849Z" fill="#00A9A8"/>
<path d="M35.5923 21.5781H34.6589V23.4369H35.5923V21.5781Z" fill="#00A9A8"/>
<path d="M39.7597 23.5762L38.8563 24.5054L39.5255 25.156L40.4289 24.2269L39.7597 23.5762Z" fill="#00A9A8"/>
<path d="M30.4913 23.5764L29.8221 24.2271L30.7255 25.1562L31.3947 24.5056L30.4913 23.5764Z" fill="#00A9A8"/>
<defs>
<filter id="filter0_d_103_718" x="0" y="0" width="70" height="70" filterUnits="userSpaceOnUse" color-interpolation-filters="sRGB">
<feFlood flood-opacity="0" result="BackgroundImageFix"/>
<feColorMatrix in="SourceAlpha" type="matrix" values="0 0 0 0 0 0 0 0 0 0 0 0 0 0 0 0 0 0 127 0" result="hardAlpha"/>
<feOffset/>
<feGaussianBlur stdDeviation="5"/>
<feComposite in2="hardAlpha" operator="out"/>
<feColorMatrix type="matrix" values="0 0 0 0 0 0 0 0 0 0 0 0 0 0 0 0 0 0 0.2 0"/>
<feBlend mode="normal" in2="BackgroundImageFix" result="effect1_dropShadow_103_718"/>
<feBlend mode="normal" in="SourceGraphic" in2="effect1_dropShadow_103_718" result="shape"/>
</filter>
</defs>
</svg>
