<svg width="70" height="70" viewBox="0 0 70 70" fill="none" xmlns="http://www.w3.org/2000/svg">
<g id="Group 24">
<g id="Rectangle 9" filter="url(#filter0_d_103_708)">
<rect x="10" y="10" width="50" height="50" rx="4" fill="white"/>
</g>
<g id="Group 23">
<path id="Vector" d="M42.2515 41.7775C41.8501 42.1024 41.425 42.4221 40.9722 42.7359C40.7237 42.9083 40.3812 42.8472 40.2081 42.5976C40.0351 42.3482 40.0974 42.0061 40.3464 41.8334C44.3935 39.0281 46.224 35.8145 45.9797 32.0063C45.6955 27.5721 42.9238 23.8527 38.9244 22.5255L38.9244 22.5255C36.087 21.5832 33.1718 21.9621 30.77 23.1162C28.3668 24.2709 26.4864 26.1974 25.7124 28.3393L25.7124 28.3393C25.5846 28.6929 25.6331 29.0878 25.8415 29.3951L25.8415 29.3952C26.3684 30.1729 26.3562 31.2093 25.8112 31.9749L25.8097 31.977L25.8097 31.977L23.0195 35.6896C23.0195 35.6896 23.0195 35.6896 23.0195 35.6896C22.971 35.7542 23.0164 35.8447 23.0968 35.8447H25.6198C25.923 35.8447 26.1689 36.0905 26.1689 36.3938C26.1689 36.697 25.923 36.9428 25.6198 36.9428H24.9426C25.0837 37.3855 25.352 37.7839 25.7212 38.0818L25.7219 38.0823C26.0257 38.3319 25.9795 38.7825 25.6885 38.9757L25.6883 38.9759C25.5067 39.0959 25.437 39.2203 25.4198 39.3354C25.4019 39.4551 25.4376 39.5841 25.5049 39.716C25.5719 39.8474 25.6644 39.9707 25.7467 40.0774C25.7529 40.0854 25.759 40.0934 25.7651 40.1013C25.7986 40.1446 25.8306 40.1859 25.8558 40.2218C25.8708 40.2432 25.8849 40.2647 25.8963 40.2854L42.2515 41.7775ZM42.2515 41.7775V48.7413H31.4896V46.302C31.4896 45.4846 31.2172 44.7135 30.7424 44.0874H33.0502C34.567 44.0874 35.9932 43.496 37.0648 42.4227C37.279 42.2081 37.2787 41.8605 37.0642 41.6462L37.0642 41.6462C36.8494 41.4319 36.5019 41.4316 36.2878 41.6468C35.4232 42.5126 34.2738 42.9893 33.0502 42.9893H25.918C25.2313 42.9893 24.8314 42.2204 25.2208 41.6601L42.2515 41.7775ZM24.9322 30.0111L24.9322 30.0111C25.2031 30.4108 25.1965 30.9438 24.9242 31.3275L22.1416 35.0296L22.1416 35.0297C21.5491 35.8184 22.1137 36.9427 23.0967 36.9427H23.8093C23.9354 37.5386 24.2132 38.0926 24.611 38.5387C24.2258 39.1384 24.2441 39.9561 24.6687 40.5307L24.3191 41.0328L24.319 41.0329C23.424 42.321 24.3481 44.0874 25.9179 44.0874H29.1233C29.907 44.5507 30.3913 45.3859 30.3913 46.3019V49.2903C30.3913 49.5935 30.6372 49.8394 30.9404 49.8394H42.8005C43.1038 49.8394 43.3496 49.5935 43.3496 49.2903V40.8141C46.0618 38.2328 47.2919 35.3061 47.0758 31.936C46.763 27.0588 43.7012 22.9537 39.2703 21.4831C36.1395 20.4439 32.9236 20.8712 30.2766 22.1526C27.6309 23.4334 25.5448 25.5717 24.6796 27.9657C24.4325 28.6484 24.5269 29.4128 24.9322 30.0111ZM25.8359 40.7764C25.9211 40.6539 25.9528 40.5021 25.9238 40.356L25.2208 41.66L25.8359 40.7764L25.8359 40.7764Z" fill="#008987" stroke="#008987" stroke-width="0.2"/>
<path id="Vector_2" d="M33.1342 29.7355V27.8929H34.4332V28.5119C34.4332 29.3296 35.0957 29.9954 35.9111 29.9954C36.7292 29.9954 37.3946 29.3301 37.3946 28.5119V27.8929H38.6936V29.741C38.6936 30.0442 38.9395 30.2901 39.2427 30.2901H40.4054C40.6177 30.2901 40.7907 30.463 40.7907 30.6754C40.7907 30.8835 40.6188 31.0552 40.4054 31.0552H39.2427H39.1427V31.0643C38.8872 31.1113 38.6936 31.3352 38.6936 31.6043V33.447H36.8455C36.5423 33.447 36.2964 33.6928 36.2964 33.996V35.1639C36.2964 35.3762 36.1235 35.5492 35.9111 35.5492C35.703 35.5492 35.5314 35.3773 35.5314 35.1639V33.996C35.5314 33.6928 35.2855 33.447 34.9823 33.447H33.1342V31.6043C33.1342 31.3011 32.8883 31.0552 32.5851 31.0552H31.4227C31.2104 31.0552 31.0374 30.8823 31.0374 30.6699C31.0374 30.4621 31.2089 30.2901 31.4248 30.2901L31.4253 30.2901L32.5877 30.2846C32.5877 30.2846 32.5877 30.2846 32.5877 30.2846C32.89 30.2832 33.1342 30.0377 33.1342 29.7355ZM41.8888 30.6754C41.8888 29.8573 41.2235 29.192 40.4054 29.192H39.7918V27.3439C39.7918 27.0407 39.5459 26.7948 39.2427 26.7948H36.8455C36.5423 26.7948 36.2964 27.0406 36.2964 27.3439V28.512C36.2964 28.7243 36.1235 28.8973 35.9111 28.8973C35.703 28.8973 35.5314 28.7254 35.5314 28.512V27.3439C35.5314 27.0407 35.2855 26.7948 34.9823 26.7948H32.5851C32.2819 26.7948 32.036 27.0407 32.036 27.3439V29.1892L31.4227 29.192V29.292L31.4222 29.192L31.4224 29.192C30.6048 29.1922 29.9392 29.8546 29.9392 30.67C29.9392 31.4881 30.6045 32.1534 31.4227 32.1534H32.036V33.9961C32.036 34.2993 32.2819 34.5452 32.5851 34.5452H34.4332V35.164C34.4332 35.9817 35.0957 36.6474 35.9111 36.6474C36.7292 36.6474 37.3946 35.9821 37.3946 35.164V34.5452H39.2427C39.5459 34.5452 39.7918 34.2993 39.7918 33.9961V32.1534H40.4054C41.2231 32.1534 41.8888 31.4909 41.8888 30.6754Z" fill="#008987" stroke="#008987" stroke-width="0.2"/>
</g>
</g>
<defs>
<filter id="filter0_d_103_708" x="0" y="0" width="70" height="70" filterUnits="userSpaceOnUse" color-interpolation-filters="sRGB">
<feFlood flood-opacity="0" result="BackgroundImageFix"/>
<feColorMatrix in="SourceAlpha" type="matrix" values="0 0 0 0 0 0 0 0 0 0 0 0 0 0 0 0 0 0 127 0" result="hardAlpha"/>
<feOffset/>
<feGaussianBlur stdDeviation="5"/>
<feComposite in2="hardAlpha" operator="out"/>
<feColorMatrix type="matrix" values="0 0 0 0 0 0 0 0 0 0 0 0 0 0 0 0 0 0 0.2 0"/>
<feBlend mode="normal" in2="BackgroundImageFix" result="effect1_dropShadow_103_708"/>
<feBlend mode="normal" in="SourceGraphic" in2="effect1_dropShadow_103_708" result="shape"/>
</filter>
</defs>
</svg>
