<svg width="62" height="62" viewBox="0 0 62 62" fill="none" xmlns="http://www.w3.org/2000/svg">
<g filter="url(#filter0_d_103_646)">
<path d="M9.99988 18C9.99988 13.5817 13.5816 10 17.9999 10H43.9999C48.4182 10 51.9999 13.5817 51.9999 18V44C51.9999 48.4183 48.4182 52 43.9999 52H17.9999C13.5816 52 9.99988 48.4183 9.99988 44V18Z" fill="white"/>
</g>
<mask id="path-2-outside-1_103_646" maskUnits="userSpaceOnUse" x="18.9999" y="19" width="24" height="24" fill="black">
<rect fill="white" x="18.9999" y="19" width="24" height="24"/>
<path d="M41.8829 31.8437L40.5349 30.0767C40.4621 29.9813 40.3584 29.9144 40.2416 29.8874C40.1247 29.8604 40.0021 29.875 39.8949 29.9287L37.4279 31.1617H36.2089V30.5987C36.2086 30.462 36.1541 30.331 36.0574 30.2344C35.9607 30.1379 35.8296 30.0837 35.6929 30.0837H32.9679L31.7939 29.1477C31.7031 29.075 31.5902 29.0355 31.4739 29.0357H28.3309C28.2612 29.0356 28.1922 29.0497 28.1281 29.077C28.064 29.1043 28.0061 29.1443 27.9579 29.1947L23.9349 33.4147L23.0609 32.5407C22.9626 32.4472 22.8321 32.395 22.6964 32.395C22.5607 32.395 22.4302 32.4472 22.3319 32.5407L20.1509 34.7217C20.0543 34.8182 20 34.9491 19.9999 35.0857V41.4497C19.9994 41.5176 20.0123 41.585 20.0379 41.648C20.0636 41.7109 20.1014 41.7682 20.1493 41.8164C20.1972 41.8647 20.2541 41.903 20.3169 41.9291C20.3796 41.9552 20.4469 41.9687 20.5149 41.9687H26.8789C26.9465 41.9687 27.0135 41.9554 27.076 41.9295C27.1384 41.9036 27.1952 41.8656 27.2429 41.8177L29.4239 39.6367C29.4718 39.5889 29.5098 39.5322 29.5357 39.4697C29.5616 39.4073 29.575 39.3403 29.575 39.2727C29.575 39.205 29.5616 39.1381 29.5357 39.0756C29.5098 39.0131 29.4718 38.9564 29.4239 38.9087L28.4699 37.9537L29.2429 37.2537H34.9429C35.0501 37.2544 35.1549 37.2219 35.2429 37.1607L41.7719 32.5787C41.8286 32.5387 41.8767 32.4877 41.9133 32.4287C41.9499 32.3697 41.9742 32.304 41.9849 32.2354C41.9955 32.1668 41.9922 32.0967 41.9752 32.0294C41.9582 31.9621 41.9278 31.899 41.8859 31.8437H41.8829ZM26.6649 40.9347H21.0299V35.2997L22.6939 33.6337L28.3309 39.2687L26.6649 40.9347ZM34.7819 36.2227H29.0449C28.9175 36.2226 28.7947 36.2696 28.6999 36.3547L27.7399 37.2197L24.6639 34.1437L28.5519 30.0687H31.2939L32.4709 31.0057C32.5619 31.0779 32.6747 31.1174 32.7909 31.1177H35.1809V31.9827L34.3039 32.6027H30.7219C30.5853 32.6027 30.4543 32.6569 30.3577 32.7535C30.2612 32.8501 30.2069 32.9811 30.2069 33.1177C30.2069 33.2543 30.2612 33.3852 30.3577 33.4818C30.4543 33.5784 30.5853 33.6327 30.7219 33.6327H34.4649C34.5722 33.6331 34.677 33.6003 34.7649 33.5387L35.9939 32.6687C36.0611 32.6209 36.1159 32.5577 36.1538 32.4845C36.1917 32.4113 36.2116 32.3301 36.2119 32.2477V32.1947C37.5119 32.1787 37.5939 32.2347 37.7839 32.1407L39.9769 31.0407L40.7409 32.0407L34.7819 36.2227ZM35.3499 28.3387C35.4444 28.423 35.5667 28.4696 35.6934 28.4696C35.8201 28.4696 35.9424 28.423 36.0369 28.3387C36.1669 28.2217 39.2369 25.4677 39.9569 24.5387C40.2031 24.2153 40.3727 23.8403 40.4529 23.4419C40.5331 23.0435 40.5218 22.6321 40.4199 22.2387C40.3055 21.7896 40.0907 21.3724 39.7918 21.0183C39.4928 20.6643 39.1174 20.3827 38.6939 20.1947C38.1864 19.994 37.6309 19.9476 37.0972 20.0615C36.5635 20.1753 36.0753 20.4443 35.6939 20.8347C35.3127 20.444 34.8245 20.1748 34.2907 20.0609C33.7569 19.947 33.2013 19.9936 32.6939 20.1947C32.2706 20.3826 31.8955 20.6641 31.5967 21.018C31.2979 21.3719 31.0833 21.7889 30.9689 22.2377C30.8673 22.6311 30.8562 23.0425 30.9364 23.4408C31.0166 23.8392 31.186 24.2142 31.4319 24.5377C32.1459 25.4687 35.2189 28.2217 35.3499 28.3387ZM31.9669 22.4847C32.0444 22.1866 32.1886 21.9099 32.3885 21.6756C32.5883 21.4412 32.8388 21.2553 33.1209 21.1317C33.2952 21.0499 33.4854 21.0076 33.6779 21.0077C34.3108 21.0817 34.8904 21.3982 35.2949 21.8907C35.3438 21.9492 35.405 21.9963 35.4741 22.0286C35.5432 22.061 35.6186 22.0777 35.6949 22.0777C35.7713 22.0782 35.8468 22.0617 35.916 22.0293C35.9852 21.997 36.0463 21.9496 36.0949 21.8907C36.1379 21.8397 37.1679 20.6247 38.2699 21.1317C38.5521 21.2551 38.8026 21.4411 39.0025 21.6754C39.2024 21.9098 39.3465 22.1865 39.4239 22.4847C39.4881 22.7276 39.4964 22.9819 39.4483 23.2286C39.4001 23.4752 39.2967 23.7077 39.1459 23.9087C38.0529 25.0839 36.9008 26.2027 35.6939 27.2607C34.4883 26.2027 33.3375 25.0839 32.2459 23.9087C32.0947 23.7079 31.991 23.4754 31.9427 23.2287C31.8943 22.9821 31.9026 22.7277 31.9669 22.4847Z"/>
</mask>
<path d="M41.8829 31.8437L40.5349 30.0767C40.4621 29.9813 40.3584 29.9144 40.2416 29.8874C40.1247 29.8604 40.0021 29.875 39.8949 29.9287L37.4279 31.1617H36.2089V30.5987C36.2086 30.462 36.1541 30.331 36.0574 30.2344C35.9607 30.1379 35.8296 30.0837 35.6929 30.0837H32.9679L31.7939 29.1477C31.7031 29.075 31.5902 29.0355 31.4739 29.0357H28.3309C28.2612 29.0356 28.1922 29.0497 28.1281 29.077C28.064 29.1043 28.0061 29.1443 27.9579 29.1947L23.9349 33.4147L23.0609 32.5407C22.9626 32.4472 22.8321 32.395 22.6964 32.395C22.5607 32.395 22.4302 32.4472 22.3319 32.5407L20.1509 34.7217C20.0543 34.8182 20 34.9491 19.9999 35.0857V41.4497C19.9994 41.5176 20.0123 41.585 20.0379 41.648C20.0636 41.7109 20.1014 41.7682 20.1493 41.8164C20.1972 41.8647 20.2541 41.903 20.3169 41.9291C20.3796 41.9552 20.4469 41.9687 20.5149 41.9687H26.8789C26.9465 41.9687 27.0135 41.9554 27.076 41.9295C27.1384 41.9036 27.1952 41.8656 27.2429 41.8177L29.4239 39.6367C29.4718 39.5889 29.5098 39.5322 29.5357 39.4697C29.5616 39.4073 29.575 39.3403 29.575 39.2727C29.575 39.205 29.5616 39.1381 29.5357 39.0756C29.5098 39.0131 29.4718 38.9564 29.4239 38.9087L28.4699 37.9537L29.2429 37.2537H34.9429C35.0501 37.2544 35.1549 37.2219 35.2429 37.1607L41.7719 32.5787C41.8286 32.5387 41.8767 32.4877 41.9133 32.4287C41.9499 32.3697 41.9742 32.304 41.9849 32.2354C41.9955 32.1668 41.9922 32.0967 41.9752 32.0294C41.9582 31.9621 41.9278 31.899 41.8859 31.8437H41.8829ZM26.6649 40.9347H21.0299V35.2997L22.6939 33.6337L28.3309 39.2687L26.6649 40.9347ZM34.7819 36.2227H29.0449C28.9175 36.2226 28.7947 36.2696 28.6999 36.3547L27.7399 37.2197L24.6639 34.1437L28.5519 30.0687H31.2939L32.4709 31.0057C32.5619 31.0779 32.6747 31.1174 32.7909 31.1177H35.1809V31.9827L34.3039 32.6027H30.7219C30.5853 32.6027 30.4543 32.6569 30.3577 32.7535C30.2612 32.8501 30.2069 32.9811 30.2069 33.1177C30.2069 33.2543 30.2612 33.3852 30.3577 33.4818C30.4543 33.5784 30.5853 33.6327 30.7219 33.6327H34.4649C34.5722 33.6331 34.677 33.6003 34.7649 33.5387L35.9939 32.6687C36.0611 32.6209 36.1159 32.5577 36.1538 32.4845C36.1917 32.4113 36.2116 32.3301 36.2119 32.2477V32.1947C37.5119 32.1787 37.5939 32.2347 37.7839 32.1407L39.9769 31.0407L40.7409 32.0407L34.7819 36.2227ZM35.3499 28.3387C35.4444 28.423 35.5667 28.4696 35.6934 28.4696C35.8201 28.4696 35.9424 28.423 36.0369 28.3387C36.1669 28.2217 39.2369 25.4677 39.9569 24.5387C40.2031 24.2153 40.3727 23.8403 40.4529 23.4419C40.5331 23.0435 40.5218 22.6321 40.4199 22.2387C40.3055 21.7896 40.0907 21.3724 39.7918 21.0183C39.4928 20.6643 39.1174 20.3827 38.6939 20.1947C38.1864 19.994 37.6309 19.9476 37.0972 20.0615C36.5635 20.1753 36.0753 20.4443 35.6939 20.8347C35.3127 20.444 34.8245 20.1748 34.2907 20.0609C33.7569 19.947 33.2013 19.9936 32.6939 20.1947C32.2706 20.3826 31.8955 20.6641 31.5967 21.018C31.2979 21.3719 31.0833 21.7889 30.9689 22.2377C30.8673 22.6311 30.8562 23.0425 30.9364 23.4408C31.0166 23.8392 31.186 24.2142 31.4319 24.5377C32.1459 25.4687 35.2189 28.2217 35.3499 28.3387ZM31.9669 22.4847C32.0444 22.1866 32.1886 21.9099 32.3885 21.6756C32.5883 21.4412 32.8388 21.2553 33.1209 21.1317C33.2952 21.0499 33.4854 21.0076 33.6779 21.0077C34.3108 21.0817 34.8904 21.3982 35.2949 21.8907C35.3438 21.9492 35.405 21.9963 35.4741 22.0286C35.5432 22.061 35.6186 22.0777 35.6949 22.0777C35.7713 22.0782 35.8468 22.0617 35.916 22.0293C35.9852 21.997 36.0463 21.9496 36.0949 21.8907C36.1379 21.8397 37.1679 20.6247 38.2699 21.1317C38.5521 21.2551 38.8026 21.4411 39.0025 21.6754C39.2024 21.9098 39.3465 22.1865 39.4239 22.4847C39.4881 22.7276 39.4964 22.9819 39.4483 23.2286C39.4001 23.4752 39.2967 23.7077 39.1459 23.9087C38.0529 25.0839 36.9008 26.2027 35.6939 27.2607C34.4883 26.2027 33.3375 25.0839 32.2459 23.9087C32.0947 23.7079 31.991 23.4754 31.9427 23.2287C31.8943 22.9821 31.9026 22.7277 31.9669 22.4847Z" fill="black"/>
<path d="M41.8829 31.8437L40.5349 30.0767C40.4621 29.9813 40.3584 29.9144 40.2416 29.8874C40.1247 29.8604 40.0021 29.875 39.8949 29.9287L37.4279 31.1617H36.2089V30.5987C36.2086 30.462 36.1541 30.331 36.0574 30.2344C35.9607 30.1379 35.8296 30.0837 35.6929 30.0837H32.9679L31.7939 29.1477C31.7031 29.075 31.5902 29.0355 31.4739 29.0357H28.3309C28.2612 29.0356 28.1922 29.0497 28.1281 29.077C28.064 29.1043 28.0061 29.1443 27.9579 29.1947L23.9349 33.4147L23.0609 32.5407C22.9626 32.4472 22.8321 32.395 22.6964 32.395C22.5607 32.395 22.4302 32.4472 22.3319 32.5407L20.1509 34.7217C20.0543 34.8182 20 34.9491 19.9999 35.0857V41.4497C19.9994 41.5176 20.0123 41.585 20.0379 41.648C20.0636 41.7109 20.1014 41.7682 20.1493 41.8164C20.1972 41.8647 20.2541 41.903 20.3169 41.9291C20.3796 41.9552 20.4469 41.9687 20.5149 41.9687H26.8789C26.9465 41.9687 27.0135 41.9554 27.076 41.9295C27.1384 41.9036 27.1952 41.8656 27.2429 41.8177L29.4239 39.6367C29.4718 39.5889 29.5098 39.5322 29.5357 39.4697C29.5616 39.4073 29.575 39.3403 29.575 39.2727C29.575 39.205 29.5616 39.1381 29.5357 39.0756C29.5098 39.0131 29.4718 38.9564 29.4239 38.9087L28.4699 37.9537L29.2429 37.2537H34.9429C35.0501 37.2544 35.1549 37.2219 35.2429 37.1607L41.7719 32.5787C41.8286 32.5387 41.8767 32.4877 41.9133 32.4287C41.9499 32.3697 41.9742 32.304 41.9849 32.2354C41.9955 32.1668 41.9922 32.0967 41.9752 32.0294C41.9582 31.9621 41.9278 31.899 41.8859 31.8437H41.8829ZM26.6649 40.9347H21.0299V35.2997L22.6939 33.6337L28.3309 39.2687L26.6649 40.9347ZM34.7819 36.2227H29.0449C28.9175 36.2226 28.7947 36.2696 28.6999 36.3547L27.7399 37.2197L24.6639 34.1437L28.5519 30.0687H31.2939L32.4709 31.0057C32.5619 31.0779 32.6747 31.1174 32.7909 31.1177H35.1809V31.9827L34.3039 32.6027H30.7219C30.5853 32.6027 30.4543 32.6569 30.3577 32.7535C30.2612 32.8501 30.2069 32.9811 30.2069 33.1177C30.2069 33.2543 30.2612 33.3852 30.3577 33.4818C30.4543 33.5784 30.5853 33.6327 30.7219 33.6327H34.4649C34.5722 33.6331 34.677 33.6003 34.7649 33.5387L35.9939 32.6687C36.0611 32.6209 36.1159 32.5577 36.1538 32.4845C36.1917 32.4113 36.2116 32.3301 36.2119 32.2477V32.1947C37.5119 32.1787 37.5939 32.2347 37.7839 32.1407L39.9769 31.0407L40.7409 32.0407L34.7819 36.2227ZM35.3499 28.3387C35.4444 28.423 35.5667 28.4696 35.6934 28.4696C35.8201 28.4696 35.9424 28.423 36.0369 28.3387C36.1669 28.2217 39.2369 25.4677 39.9569 24.5387C40.2031 24.2153 40.3727 23.8403 40.4529 23.4419C40.5331 23.0435 40.5218 22.6321 40.4199 22.2387C40.3055 21.7896 40.0907 21.3724 39.7918 21.0183C39.4928 20.6643 39.1174 20.3827 38.6939 20.1947C38.1864 19.994 37.6309 19.9476 37.0972 20.0615C36.5635 20.1753 36.0753 20.4443 35.6939 20.8347C35.3127 20.444 34.8245 20.1748 34.2907 20.0609C33.7569 19.947 33.2013 19.9936 32.6939 20.1947C32.2706 20.3826 31.8955 20.6641 31.5967 21.018C31.2979 21.3719 31.0833 21.7889 30.9689 22.2377C30.8673 22.6311 30.8562 23.0425 30.9364 23.4408C31.0166 23.8392 31.186 24.2142 31.4319 24.5377C32.1459 25.4687 35.2189 28.2217 35.3499 28.3387ZM31.9669 22.4847C32.0444 22.1866 32.1886 21.9099 32.3885 21.6756C32.5883 21.4412 32.8388 21.2553 33.1209 21.1317C33.2952 21.0499 33.4854 21.0076 33.6779 21.0077C34.3108 21.0817 34.8904 21.3982 35.2949 21.8907C35.3438 21.9492 35.405 21.9963 35.4741 22.0286C35.5432 22.061 35.6186 22.0777 35.6949 22.0777C35.7713 22.0782 35.8468 22.0617 35.916 22.0293C35.9852 21.997 36.0463 21.9496 36.0949 21.8907C36.1379 21.8397 37.1679 20.6247 38.2699 21.1317C38.5521 21.2551 38.8026 21.4411 39.0025 21.6754C39.2024 21.9098 39.3465 22.1865 39.4239 22.4847C39.4881 22.7276 39.4964 22.9819 39.4483 23.2286C39.4001 23.4752 39.2967 23.7077 39.1459 23.9087C38.0529 25.0839 36.9008 26.2027 35.6939 27.2607C34.4883 26.2027 33.3375 25.0839 32.2459 23.9087C32.0947 23.7079 31.991 23.4754 31.9427 23.2287C31.8943 22.9821 31.9026 22.7277 31.9669 22.4847Z" stroke="black" stroke-width="0.4" mask="url(#path-2-outside-1_103_646)"/>
<defs>
<filter id="filter0_d_103_646" x="-0.00012207" y="0" width="62" height="62" filterUnits="userSpaceOnUse" color-interpolation-filters="sRGB">
<feFlood flood-opacity="0" result="BackgroundImageFix"/>
<feColorMatrix in="SourceAlpha" type="matrix" values="0 0 0 0 0 0 0 0 0 0 0 0 0 0 0 0 0 0 127 0" result="hardAlpha"/>
<feOffset/>
<feGaussianBlur stdDeviation="5"/>
<feComposite in2="hardAlpha" operator="out"/>
<feColorMatrix type="matrix" values="0 0 0 0 0 0 0 0 0 0 0 0 0 0 0 0 0 0 0.2 0"/>
<feBlend mode="normal" in2="BackgroundImageFix" result="effect1_dropShadow_103_646"/>
<feBlend mode="normal" in="SourceGraphic" in2="effect1_dropShadow_103_646" result="shape"/>
</filter>
</defs>
</svg>
