<svg width="62" height="62" viewBox="0 0 62 62" fill="none" xmlns="http://www.w3.org/2000/svg">
<g filter="url(#filter0_d_103_653)">
<rect x="9.99988" y="10" width="42" height="42" rx="8" fill="white"/>
</g>
<path d="M40.4202 27.7374C40.4202 27.0754 40.3323 26.491 40.1564 25.9843C39.9805 25.4776 39.7555 25.075 39.4814 24.7767C39.2073 24.4784 38.8739 24.2353 38.4813 24.0473C38.0886 23.8593 37.704 23.7326 37.3277 23.6673C36.9514 23.6019 36.5505 23.5692 36.1251 23.5692C35.6996 23.5692 35.2415 23.6734 34.7506 23.8818C34.2597 24.0902 33.8077 24.3517 33.3946 24.6664C32.9814 24.9811 32.6276 25.2753 32.3331 25.5491C32.0385 25.8229 31.7931 26.0742 31.5968 26.303C31.4495 26.4828 31.2491 26.5727 30.9954 26.5727C30.7418 26.5727 30.5414 26.4828 30.3941 26.303C30.1978 26.0742 29.9523 25.8229 29.6578 25.5491C29.3633 25.2753 29.0094 24.9811 28.5963 24.6664C28.1831 24.3517 27.7311 24.0902 27.2403 23.8818C26.7494 23.6734 26.2912 23.5692 25.8658 23.5692C25.4404 23.5692 25.0395 23.6019 24.6632 23.6673C24.2868 23.7326 23.9023 23.8593 23.5096 24.0473C23.1169 24.2353 22.7835 24.4784 22.5095 24.7767C22.2354 25.075 22.0104 25.4776 21.8345 25.9843C21.6586 26.491 21.5707 27.0754 21.5707 27.7374C21.5707 29.1104 22.3356 30.5611 23.8655 32.0894L30.9954 38.9546L38.1131 32.1017C39.6512 30.5652 40.4202 29.1104 40.4202 27.7374ZM41.991 27.7374C41.991 29.5436 41.0542 31.3825 39.1807 33.254L31.5354 40.6096C31.3881 40.7567 31.2081 40.8303 30.9954 40.8303C30.7827 40.8303 30.6027 40.7567 30.4555 40.6096L22.7979 33.2295C22.716 33.1641 22.6036 33.0579 22.4604 32.9108C22.3172 32.7637 22.0902 32.496 21.7793 32.1078C21.4684 31.7196 21.1902 31.3212 20.9448 30.9125C20.6994 30.5039 20.4805 30.0094 20.2883 29.4291C20.096 28.8489 19.9999 28.2849 19.9999 27.7374C19.9999 25.9393 20.5194 24.5336 21.5584 23.5202C22.5974 22.5067 24.0332 22 25.8658 22C26.373 22 26.8905 22.0879 27.4182 22.2636C27.9459 22.4393 28.4368 22.6763 28.8908 22.9746C29.3449 23.2729 29.7355 23.5528 30.0628 23.8144C30.39 24.0759 30.7009 24.3538 30.9954 24.648C31.29 24.3538 31.6008 24.0759 31.9281 23.8144C32.2553 23.5528 32.646 23.2729 33.1001 22.9746C33.5541 22.6763 34.045 22.4393 34.5727 22.2636C35.1004 22.0879 35.6178 22 36.1251 22C37.9577 22 39.3935 22.5067 40.4325 23.5202C41.4715 24.5336 41.991 25.9393 41.991 27.7374Z" fill="black"/>
<defs>
<filter id="filter0_d_103_653" x="-0.00012207" y="0" width="62" height="62" filterUnits="userSpaceOnUse" color-interpolation-filters="sRGB">
<feFlood flood-opacity="0" result="BackgroundImageFix"/>
<feColorMatrix in="SourceAlpha" type="matrix" values="0 0 0 0 0 0 0 0 0 0 0 0 0 0 0 0 0 0 127 0" result="hardAlpha"/>
<feOffset/>
<feGaussianBlur stdDeviation="5"/>
<feComposite in2="hardAlpha" operator="out"/>
<feColorMatrix type="matrix" values="0 0 0 0 0 0 0 0 0 0 0 0 0 0 0 0 0 0 0.2 0"/>
<feBlend mode="normal" in2="BackgroundImageFix" result="effect1_dropShadow_103_653"/>
<feBlend mode="normal" in="SourceGraphic" in2="effect1_dropShadow_103_653" result="shape"/>
</filter>
</defs>
</svg>
