<svg width="105" height="47" viewBox="0 0 105 47" fill="none" xmlns="http://www.w3.org/2000/svg">
<path d="M79.07 39.39C79.4633 39.4633 79.7967 39.6633 80.07 39.99C80.3433 40.3167 80.48 40.6967 80.48 41.13C80.48 41.4833 80.39 41.8033 80.21 42.09C80.0367 42.37 79.78 42.5933 79.44 42.76C79.1 42.92 78.6933 43 78.22 43H75.8V36.01H78.15C78.8567 36.01 79.3933 36.1733 79.76 36.5C80.1333 36.8267 80.32 37.25 80.32 37.77C80.32 38.2033 80.2033 38.5567 79.97 38.83C79.7367 39.0967 79.4367 39.2833 79.07 39.39ZM76.5 39.1H78.13C78.6033 39.1 78.9667 38.99 79.22 38.77C79.48 38.5433 79.61 38.2333 79.61 37.84C79.61 37.4533 79.48 37.15 79.22 36.93C78.9667 36.71 78.5933 36.6 78.1 36.6H76.5V39.1ZM78.17 42.41C78.6767 42.41 79.07 42.29 79.35 42.05C79.6367 41.81 79.78 41.48 79.78 41.06C79.78 40.64 79.63 40.3067 79.33 40.06C79.0367 39.8067 78.64 39.68 78.14 39.68H76.5V42.41H78.17ZM82.4668 35.6V43H81.7668V35.6H82.4668ZM86.442 43.08C85.9286 43.08 85.4653 42.9667 85.052 42.74C84.6453 42.5067 84.322 42.18 84.082 41.76C83.8486 41.3333 83.732 40.8367 83.732 40.27C83.732 39.7033 83.852 39.21 84.092 38.79C84.332 38.3633 84.6586 38.0367 85.072 37.81C85.4853 37.5767 85.9486 37.46 86.462 37.46C86.9753 37.46 87.4386 37.5767 87.852 37.81C88.272 38.0367 88.5986 38.3633 88.832 38.79C89.072 39.21 89.192 39.7033 89.192 40.27C89.192 40.83 89.072 41.3233 88.832 41.75C88.592 42.1767 88.262 42.5067 87.842 42.74C87.422 42.9667 86.9553 43.08 86.442 43.08ZM86.442 42.47C86.802 42.47 87.1353 42.39 87.442 42.23C87.7486 42.0633 87.9953 41.8167 88.182 41.49C88.3753 41.1567 88.472 40.75 88.472 40.27C88.472 39.79 88.3786 39.3867 88.192 39.06C88.0053 38.7267 87.7586 38.48 87.452 38.32C87.1453 38.1533 86.812 38.07 86.452 38.07C86.092 38.07 85.7586 38.1533 85.452 38.32C85.1453 38.48 84.8986 38.7267 84.712 39.06C84.532 39.3867 84.442 39.79 84.442 40.27C84.442 40.75 84.532 41.1567 84.712 41.49C84.8986 41.8167 85.142 42.0633 85.442 42.23C85.7486 42.39 86.082 42.47 86.442 42.47ZM92.758 37.46C93.2713 37.46 93.718 37.58 94.098 37.82C94.478 38.06 94.7513 38.3633 94.918 38.73V37.54H95.618V43.14C95.618 43.64 95.508 44.0833 95.288 44.47C95.0746 44.8567 94.7746 45.1533 94.388 45.36C94.0013 45.5733 93.5613 45.68 93.068 45.68C92.368 45.68 91.7846 45.5133 91.318 45.18C90.858 44.8467 90.5713 44.3933 90.458 43.82H91.148C91.268 44.2 91.4946 44.5033 91.828 44.73C92.168 44.9567 92.5813 45.07 93.068 45.07C93.4213 45.07 93.738 44.9933 94.018 44.84C94.298 44.6933 94.518 44.4733 94.678 44.18C94.838 43.8867 94.918 43.54 94.918 43.14V41.79C94.7446 42.1633 94.468 42.4733 94.088 42.72C93.7146 42.96 93.2713 43.08 92.758 43.08C92.258 43.08 91.808 42.9633 91.408 42.73C91.0146 42.4967 90.7046 42.1667 90.478 41.74C90.258 41.3133 90.148 40.82 90.148 40.26C90.148 39.7 90.258 39.21 90.478 38.79C90.7046 38.3633 91.0146 38.0367 91.408 37.81C91.808 37.5767 92.258 37.46 92.758 37.46ZM94.918 40.27C94.918 39.83 94.828 39.4433 94.648 39.11C94.468 38.7767 94.2213 38.52 93.908 38.34C93.6013 38.16 93.2613 38.07 92.888 38.07C92.5013 38.07 92.1546 38.1567 91.848 38.33C91.5413 38.5033 91.298 38.7567 91.118 39.09C90.9446 39.4167 90.858 39.8067 90.858 40.26C90.858 40.7067 90.9446 41.1 91.118 41.44C91.298 41.7733 91.5413 42.03 91.848 42.21C92.1546 42.3833 92.5013 42.47 92.888 42.47C93.2613 42.47 93.6013 42.38 93.908 42.2C94.2213 42.02 94.468 41.7633 94.648 41.43C94.828 41.0967 94.918 40.71 94.918 40.27Z" fill="#0BB8B6"/>
<g filter="url(#filter0_d_103_770)">
<path d="M15.72 22L13.384 17.76H12.728V22H9.992V10.768H14.584C15.4693 10.768 16.2213 10.9227 16.84 11.232C17.4693 11.5413 17.9387 11.968 18.248 12.512C18.5573 13.0453 18.712 13.6427 18.712 14.304C18.712 15.0507 18.4987 15.7173 18.072 16.304C17.656 16.8907 17.0373 17.3067 16.216 17.552L18.808 22H15.72ZM12.728 15.824H14.424C14.9253 15.824 15.2987 15.7013 15.544 15.456C15.8 15.2107 15.928 14.864 15.928 14.416C15.928 13.9893 15.8 13.6533 15.544 13.408C15.2987 13.1627 14.9253 13.04 14.424 13.04H12.728V15.824ZM19.8855 17.52C19.8855 16.6027 20.0562 15.7973 20.3975 15.104C20.7495 14.4107 21.2242 13.8773 21.8215 13.504C22.4188 13.1307 23.0855 12.944 23.8215 12.944C24.4508 12.944 25.0002 13.072 25.4695 13.328C25.9495 13.584 26.3175 13.92 26.5735 14.336V13.072H29.3095V22H26.5735V20.736C26.3068 21.152 25.9335 21.488 25.4535 21.744C24.9842 22 24.4348 22.128 23.8055 22.128C23.0802 22.128 22.4188 21.9413 21.8215 21.568C21.2242 21.184 20.7495 20.6453 20.3975 19.952C20.0562 19.248 19.8855 18.4373 19.8855 17.52ZM26.5735 17.536C26.5735 16.8533 26.3815 16.3147 25.9975 15.92C25.6242 15.5253 25.1655 15.328 24.6215 15.328C24.0775 15.328 23.6135 15.5253 23.2295 15.92C22.8562 16.304 22.6695 16.8373 22.6695 17.52C22.6695 18.2027 22.8562 18.7467 23.2295 19.152C23.6135 19.5467 24.0775 19.744 24.6215 19.744C25.1655 19.744 25.6242 19.5467 25.9975 19.152C26.3815 18.7573 26.5735 18.2187 26.5735 17.536ZM30.7449 17.552C30.7449 16.6667 30.9262 15.8773 31.2889 15.184C31.6622 14.4907 32.1582 13.952 32.7769 13.568C33.4062 13.1733 34.0889 12.976 34.8249 12.976C35.3902 12.976 35.8969 13.0773 36.3449 13.28C36.7929 13.472 37.1555 13.744 37.4329 14.096V13.072H40.1689V26.256H37.4329V20.88C37.1235 21.2533 36.7449 21.552 36.2969 21.776C35.8595 22 35.3582 22.112 34.7929 22.112C34.0675 22.112 33.3955 21.92 32.7769 21.536C32.1582 21.152 31.6622 20.6133 31.2889 19.92C30.9262 19.2267 30.7449 18.4373 30.7449 17.552ZM37.4329 17.536C37.4329 17.056 37.3369 16.656 37.1449 16.336C36.9635 16.0053 36.7235 15.76 36.4249 15.6C36.1262 15.4293 35.8115 15.344 35.4809 15.344C35.1609 15.344 34.8515 15.4293 34.5529 15.6C34.2542 15.76 34.0089 16.0053 33.8169 16.336C33.6249 16.6667 33.5289 17.072 33.5289 17.552C33.5289 18.032 33.6249 18.4373 33.8169 18.768C34.0089 19.088 34.2542 19.3333 34.5529 19.504C34.8515 19.664 35.1609 19.744 35.4809 19.744C35.8009 19.744 36.1102 19.664 36.4089 19.504C36.7182 19.3333 36.9635 19.0827 37.1449 18.752C37.3369 18.4213 37.4329 18.016 37.4329 17.536ZM50.9643 13.072V22H48.2283V20.784C47.9509 21.1787 47.5723 21.4987 47.0923 21.744C46.6229 21.9787 46.1003 22.096 45.5243 22.096C44.8416 22.096 44.2389 21.9467 43.7163 21.648C43.1936 21.3387 42.7883 20.896 42.5003 20.32C42.2123 19.744 42.0683 19.0667 42.0683 18.288V13.072H44.7883V17.92C44.7883 18.5173 44.9429 18.9813 45.2523 19.312C45.5616 19.6427 45.9776 19.808 46.5003 19.808C47.0336 19.808 47.4549 19.6427 47.7643 19.312C48.0736 18.9813 48.2283 18.5173 48.2283 17.92V13.072H50.9643ZM61.3455 17.392C61.3455 17.648 61.3295 17.9147 61.2975 18.192H55.1055C55.1482 18.7467 55.3242 19.1733 55.6335 19.472C55.9535 19.76 56.3428 19.904 56.8015 19.904C57.4842 19.904 57.9588 19.616 58.2255 19.04H61.1375C60.9882 19.6267 60.7162 20.1547 60.3215 20.624C59.9375 21.0933 59.4522 21.4613 58.8655 21.728C58.2788 21.9947 57.6228 22.128 56.8975 22.128C56.0228 22.128 55.2442 21.9413 54.5615 21.568C53.8788 21.1947 53.3455 20.6613 52.9615 19.968C52.5775 19.2747 52.3855 18.464 52.3855 17.536C52.3855 16.608 52.5722 15.7973 52.9455 15.104C53.3295 14.4107 53.8628 13.8773 54.5455 13.504C55.2282 13.1307 56.0122 12.944 56.8975 12.944C57.7615 12.944 58.5295 13.1253 59.2015 13.488C59.8735 13.8507 60.3962 14.368 60.7695 15.04C61.1535 15.712 61.3455 16.496 61.3455 17.392ZM58.5455 16.672C58.5455 16.2027 58.3855 15.8293 58.0655 15.552C57.7455 15.2747 57.3455 15.136 56.8655 15.136C56.4068 15.136 56.0175 15.2693 55.6975 15.536C55.3882 15.8027 55.1962 16.1813 55.1215 16.672H58.5455ZM65.5249 10.16V22H62.7889V10.16H65.5249Z" fill="#0BB8B6"/>
<path d="M15.72 22L15.2821 22.2413L15.4246 22.5H15.72V22ZM13.384 17.76L13.8219 17.5187L13.6794 17.26H13.384V17.76ZM12.728 17.76V17.26H12.228V17.76H12.728ZM12.728 22V22.5H13.228V22H12.728ZM9.992 22H9.492V22.5H9.992V22ZM9.992 10.768V10.268H9.492V10.768H9.992ZM16.84 11.232L16.6164 11.6792L16.6194 11.6807L16.84 11.232ZM18.248 12.512L17.8133 12.7592L17.8155 12.7629L18.248 12.512ZM18.072 16.304L17.6676 16.0099L17.6641 16.0148L18.072 16.304ZM16.216 17.552L16.0729 17.0729L15.4641 17.2548L15.784 17.8037L16.216 17.552ZM18.808 22V22.5H19.6781L19.24 21.7483L18.808 22ZM12.728 15.824H12.228V16.324H12.728V15.824ZM15.544 15.456L15.198 15.0949L15.1904 15.1024L15.544 15.456ZM15.544 13.408L15.1904 13.7616L15.198 13.769L15.544 13.408ZM12.728 13.04V12.54H12.228V13.04H12.728ZM16.1579 21.7587L13.8219 17.5187L12.9461 18.0013L15.2821 22.2413L16.1579 21.7587ZM13.384 17.26H12.728V18.26H13.384V17.26ZM12.228 17.76V22H13.228V17.76H12.228ZM12.728 21.5H9.992V22.5H12.728V21.5ZM10.492 22V10.768H9.492V22H10.492ZM9.992 11.268H14.584V10.268H9.992V11.268ZM14.584 11.268C15.4128 11.268 16.0838 11.4129 16.6164 11.6792L17.0636 10.7848C16.3589 10.4324 15.5259 10.268 14.584 10.268V11.268ZM16.6194 11.6807C17.1701 11.9514 17.5594 12.3126 17.8134 12.7592L18.6826 12.2648C18.3179 11.6234 17.7686 11.1313 17.0606 10.7833L16.6194 11.6807ZM17.8155 12.7629C18.0774 13.2144 18.212 13.7241 18.212 14.304H19.212C19.212 13.5612 19.0373 12.8762 18.6805 12.2611L17.8155 12.7629ZM18.212 14.304C18.212 14.9483 18.0302 15.5113 17.6676 16.0099L18.4764 16.5981C18.9671 15.9233 19.212 15.153 19.212 14.304H18.212ZM17.6641 16.0148C17.3245 16.4938 16.8085 16.8532 16.0729 17.0729L16.3591 18.0311C17.2661 17.7601 17.9875 17.2875 18.4799 16.5932L17.6641 16.0148ZM15.784 17.8037L18.376 22.2517L19.24 21.7483L16.648 17.3003L15.784 17.8037ZM18.808 21.5H15.72V22.5H18.808V21.5ZM12.728 16.324H14.424V15.324H12.728V16.324ZM14.424 16.324C14.9988 16.324 15.5236 16.1835 15.8976 15.8096L15.1904 15.1024C15.0738 15.2191 14.8519 15.324 14.424 15.324V16.324ZM15.89 15.817C16.2688 15.4539 16.428 14.9622 16.428 14.416H15.428C15.428 14.7658 15.3312 14.9674 15.198 15.095L15.89 15.817ZM16.428 14.416C16.428 13.8829 16.264 13.4055 15.89 13.047L15.198 13.769C15.336 13.9012 15.428 14.0958 15.428 14.416H16.428ZM15.8976 13.0544C15.5236 12.6805 14.9988 12.54 14.424 12.54V13.54C14.8519 13.54 15.0738 13.6449 15.1904 13.7616L15.8976 13.0544ZM14.424 12.54H12.728V13.54H14.424V12.54ZM12.228 13.04V15.824H13.228V13.04H12.228ZM20.3975 15.104L19.9516 14.8776L19.9489 14.8832L20.3975 15.104ZM21.8215 13.504L22.0865 13.928L21.8215 13.504ZM25.4695 13.328L25.2301 13.767L25.2342 13.7692L25.4695 13.328ZM26.5735 14.336L26.1477 14.598L27.0735 16.1025V14.336H26.5735ZM26.5735 13.072V12.572H26.0735V13.072H26.5735ZM29.3095 13.072H29.8095V12.572H29.3095V13.072ZM29.3095 22V22.5H29.8095V22H29.3095ZM26.5735 22H26.0735V22.5H26.5735V22ZM26.5735 20.736H27.0735V19.0295L26.1526 20.4662L26.5735 20.736ZM25.4535 21.744L25.2182 21.3028L25.2141 21.3051L25.4535 21.744ZM21.8215 21.568L21.5511 21.9886L21.5565 21.992L21.8215 21.568ZM20.3975 19.952L19.9475 20.1702L19.9517 20.1783L20.3975 19.952ZM25.9975 15.92L25.6342 16.2636L25.6391 16.2687L25.9975 15.92ZM23.2295 15.92L22.8711 15.5713L22.871 15.5715L23.2295 15.92ZM23.2295 19.152L22.8616 19.4909L22.8711 19.5007L23.2295 19.152ZM25.9975 19.152L25.6391 18.8033L25.6343 18.8084L25.9975 19.152ZM20.3855 17.52C20.3855 16.665 20.5443 15.9378 20.8461 15.3248L19.9489 14.8832C19.568 15.6569 19.3855 16.5403 19.3855 17.52H20.3855ZM20.8433 15.3303C21.1586 14.7094 21.5742 14.2482 22.0865 13.928L21.5565 13.08C20.8742 13.5065 20.3404 14.1119 19.9517 14.8777L20.8433 15.3303ZM22.0865 13.928C22.6007 13.6066 23.1748 13.444 23.8215 13.444V12.444C22.9962 12.444 22.237 12.6547 21.5565 13.08L22.0865 13.928ZM23.8215 13.444C24.382 13.444 24.8462 13.5576 25.2301 13.7669L25.7089 12.8891C25.1541 12.5864 24.5196 12.444 23.8215 12.444V13.444ZM25.2342 13.7692C25.645 13.9883 25.9433 14.2659 26.1477 14.598L26.9993 14.074C26.6917 13.5741 26.254 13.1797 25.7048 12.8868L25.2342 13.7692ZM27.0735 14.336V13.072H26.0735V14.336H27.0735ZM26.5735 13.572H29.3095V12.572H26.5735V13.572ZM28.8095 13.072V22H29.8095V13.072H28.8095ZM29.3095 21.5H26.5735V22.5H29.3095V21.5ZM27.0735 22V20.736H26.0735V22H27.0735ZM26.1526 20.4662C25.9366 20.803 25.6305 21.0829 25.2182 21.3028L25.6888 22.1852C26.2365 21.8931 26.677 21.501 26.9944 21.0058L26.1526 20.4662ZM25.2141 21.3051C24.8302 21.5144 24.366 21.628 23.8055 21.628V22.628C24.5036 22.628 25.1381 22.4856 25.6929 22.1829L25.2141 21.3051ZM23.8055 21.628C23.1709 21.628 22.6019 21.4661 22.0865 21.144L21.5565 21.992C22.2358 22.4165 22.9894 22.628 23.8055 22.628V21.628ZM22.0919 21.1474C21.5762 20.8159 21.1591 20.3476 20.8433 19.7257L19.9517 20.1783C20.3399 20.9431 20.8721 21.5521 21.5511 21.9886L22.0919 21.1474ZM20.8474 19.7339C20.5443 19.1086 20.3855 18.3747 20.3855 17.52H19.3855C19.3855 18.4999 19.5681 19.3874 19.9476 20.1701L20.8474 19.7339ZM27.0735 17.536C27.0735 16.756 26.8513 16.0805 26.3559 15.5713L25.6391 16.2687C25.9117 16.5488 26.0735 16.9506 26.0735 17.536H27.0735ZM26.3607 15.5764C25.8928 15.0817 25.3027 14.828 24.6215 14.828V15.828C25.0283 15.828 25.3555 15.9689 25.6343 16.2636L26.3607 15.5764ZM24.6215 14.828C23.9407 14.828 23.348 15.0812 22.8711 15.5713L23.5879 16.2687C23.879 15.9694 24.2143 15.828 24.6215 15.828V14.828ZM22.871 15.5715C22.3839 16.0725 22.1695 16.7445 22.1695 17.52H23.1695C23.1695 16.9301 23.3285 16.5355 23.588 16.2685L22.871 15.5715ZM22.1695 17.52C22.1695 18.2968 22.3843 18.9724 22.8617 19.4907L23.5973 18.8133C23.3281 18.521 23.1695 18.1085 23.1695 17.52H22.1695ZM22.8711 19.5007C23.348 19.9908 23.9407 20.244 24.6215 20.244V19.244C24.2143 19.244 23.879 19.1026 23.5879 18.8033L22.8711 19.5007ZM24.6215 20.244C25.3027 20.244 25.8928 19.9903 26.3607 19.4956L25.6343 18.8084C25.3555 19.1031 25.0283 19.244 24.6215 19.244V20.244ZM26.3559 19.5007C26.8513 18.9915 27.0735 18.316 27.0735 17.536H26.0735C26.0735 18.1214 25.9117 18.5232 25.6391 18.8033L26.3559 19.5007ZM31.2889 15.184L30.8486 14.9469L30.8458 14.9523L31.2889 15.184ZM32.7769 13.568L33.0406 13.9928L33.0425 13.9916L32.7769 13.568ZM36.3449 13.28L36.1388 13.7356L36.1479 13.7396L36.3449 13.28ZM37.4329 14.096L37.0401 14.4054L37.9329 15.5385V14.096H37.4329ZM37.4329 13.072V12.572H36.9329V13.072H37.4329ZM40.1689 13.072H40.6689V12.572H40.1689V13.072ZM40.1689 26.256V26.756H40.6689V26.256H40.1689ZM37.4329 26.256H36.9329V26.756H37.4329V26.256ZM37.4329 20.88H37.9329V19.4929L37.0479 20.561L37.4329 20.88ZM36.2969 21.776L36.0733 21.3288L36.0689 21.331L36.2969 21.776ZM32.7769 21.536L32.5132 21.9608L32.7769 21.536ZM31.2889 19.92L30.8458 20.1518L30.8486 20.157L31.2889 19.92ZM37.1449 16.336L36.7065 16.5764L36.7111 16.5849L36.7161 16.5932L37.1449 16.336ZM36.4249 15.6L36.1767 16.0343L36.1888 16.0407L36.4249 15.6ZM34.5529 15.6L34.7891 16.0409L34.8009 16.0341L34.5529 15.6ZM33.8169 16.336L34.2493 16.5871L33.8169 16.336ZM33.8169 18.768L33.3844 19.0191L33.3881 19.0252L33.8169 18.768ZM34.5529 19.504L34.3047 19.9383L34.3168 19.9447L34.5529 19.504ZM36.4089 19.504L36.645 19.9448L36.6504 19.9418L36.4089 19.504ZM37.1449 18.752L36.7124 18.5009L36.7065 18.5116L37.1449 18.752ZM31.2449 17.552C31.2449 16.7367 31.4113 16.0286 31.7319 15.4157L30.8458 14.9523C30.4411 15.726 30.2449 16.5967 30.2449 17.552H31.2449ZM31.7291 15.421C32.0645 14.7982 32.5021 14.327 33.0406 13.9928L32.5132 13.1432C31.8143 13.577 31.2599 14.1831 30.8486 14.9469L31.7291 15.421ZM33.0425 13.9916C33.593 13.6464 34.1838 13.476 34.8249 13.476V12.476C33.994 12.476 33.2194 12.7003 32.5112 13.1444L33.0425 13.9916ZM34.8249 13.476C35.3297 13.476 35.7646 13.5663 36.1388 13.7356L36.551 12.8244C36.0292 12.5884 35.4507 12.476 34.8249 12.476V13.476ZM36.1479 13.7396C36.526 13.9016 36.8189 14.1247 37.0401 14.4054L37.8256 13.7866C37.4921 13.3633 37.0597 13.0424 36.5418 12.8204L36.1479 13.7396ZM37.9329 14.096V13.072H36.9329V14.096H37.9329ZM37.4329 13.572H40.1689V12.572H37.4329V13.572ZM39.6689 13.072V26.256H40.6689V13.072H39.6689ZM40.1689 25.756H37.4329V26.756H40.1689V25.756ZM37.9329 26.256V20.88H36.9329V26.256H37.9329ZM37.0479 20.561C36.7843 20.8791 36.4613 21.1348 36.0733 21.3288L36.5205 22.2232C37.0285 21.9692 37.4628 21.6276 37.8179 21.199L37.0479 20.561ZM36.0689 21.331C35.7121 21.5138 35.2909 21.612 34.7929 21.612V22.612C35.4255 22.612 36.007 22.4862 36.5248 22.221L36.0689 21.331ZM34.7929 21.612C34.1611 21.612 33.5804 21.4462 33.0406 21.1112L32.5132 21.9608C33.2107 22.3938 33.974 22.612 34.7929 22.612V21.612ZM33.0406 21.1112C32.5021 20.777 32.0645 20.3058 31.7291 19.683L30.8486 20.157C31.2599 20.9209 31.8143 21.527 32.5132 21.9608L33.0406 21.1112ZM31.7319 19.6883C31.4113 19.0754 31.2449 18.3673 31.2449 17.552H30.2449C30.2449 18.5073 30.4411 19.378 30.8458 20.1517L31.7319 19.6883ZM37.9329 17.536C37.9329 16.9909 37.8238 16.4957 37.5736 16.0788L36.7161 16.5932C36.8499 16.8163 36.9329 17.1211 36.9329 17.536H37.9329ZM37.5833 16.0956C37.3608 15.6899 37.0546 15.3701 36.661 15.1593L36.1888 16.0407C36.3925 16.1499 36.5663 16.3208 36.7065 16.5764L37.5833 16.0956ZM36.6729 15.1659C36.3019 14.9539 35.9021 14.844 35.4809 14.844V15.844C35.7209 15.844 35.9505 15.9048 36.1768 16.0341L36.6729 15.1659ZM35.4809 14.844C35.0674 14.844 34.6732 14.9554 34.3048 15.1659L34.8009 16.0341C35.0299 15.9033 35.2544 15.844 35.4809 15.844V14.844ZM34.3168 15.1593C33.9262 15.3685 33.6169 15.6846 33.3845 16.0849L34.2493 16.5871C34.4008 16.326 34.5822 16.1515 34.789 16.0407L34.3168 15.1593ZM33.3845 16.0849C33.1382 16.509 33.0289 17.006 33.0289 17.552H34.0289C34.0289 17.138 34.1115 16.8243 34.2493 16.5871L33.3845 16.0849ZM33.0289 17.552C33.0289 18.098 33.1382 18.595 33.3845 19.0191L34.2493 18.5169C34.1115 18.2797 34.0289 17.966 34.0289 17.552H33.0289ZM33.3881 19.0252C33.6204 19.4123 33.9255 19.7214 34.3048 19.9381L34.8009 19.0699C34.5829 18.9453 34.3974 18.7637 34.2456 18.5108L33.3881 19.0252ZM34.3168 19.9447C34.6836 20.1413 35.0736 20.244 35.4809 20.244V19.244C35.2481 19.244 35.0194 19.1867 34.789 19.0633L34.3168 19.9447ZM35.4809 20.244C35.8881 20.244 36.2781 20.1413 36.645 19.9447L36.1728 19.0633C35.9423 19.1867 35.7136 19.244 35.4809 19.244V20.244ZM36.6504 19.9418C37.0484 19.7222 37.3596 19.4003 37.5833 18.9924L36.7065 18.5116C36.5675 18.765 36.388 18.9445 36.1673 19.0662L36.6504 19.9418ZM37.5773 19.0031C37.8235 18.579 37.9329 18.082 37.9329 17.536H36.9329C36.9329 17.95 36.8502 18.2637 36.7125 18.5009L37.5773 19.0031ZM50.9642 13.072H51.4642V12.572H50.9642V13.072ZM50.9642 22V22.5H51.4642V22H50.9642ZM48.2282 22H47.7282V22.5H48.2282V22ZM48.2282 20.784H48.7282V19.2028L47.8192 20.4965L48.2282 20.784ZM47.0923 21.744L47.3159 22.1912L47.3198 22.1892L47.0923 21.744ZM43.7163 21.648L43.4616 22.0783L43.4682 22.0821L43.7163 21.648ZM42.5003 20.32L42.053 20.5436L42.5003 20.32ZM42.0682 13.072V12.572H41.5682V13.072H42.0682ZM44.7882 13.072H45.2882V12.572H44.7882V13.072ZM45.2523 19.312L44.8871 19.6536L45.2523 19.312ZM48.2282 13.072V12.572H47.7282V13.072H48.2282ZM50.4642 13.072V22H51.4642V13.072H50.4642ZM50.9642 21.5H48.2282V22.5H50.9642V21.5ZM48.7282 22V20.784H47.7282V22H48.7282ZM47.8192 20.4965C47.5939 20.8171 47.2809 21.0861 46.8647 21.2988L47.3198 22.1892C47.8636 21.9113 48.308 21.5402 48.6373 21.0715L47.8192 20.4965ZM46.8686 21.2968C46.4753 21.4935 46.0303 21.596 45.5243 21.596V22.596C46.1702 22.596 46.7705 22.4639 47.3159 22.1912L46.8686 21.2968ZM45.5243 21.596C44.9167 21.596 44.4018 21.4638 43.9643 21.2139L43.4682 22.0821C44.0761 22.4295 44.7664 22.596 45.5243 22.596V21.596ZM43.9709 21.2177C43.536 20.9603 43.1952 20.5919 42.9475 20.0964L42.053 20.5436C42.3813 21.2001 42.8511 21.717 43.4616 22.0783L43.9709 21.2177ZM42.9475 20.0964C42.7007 19.6029 42.5682 19.0051 42.5682 18.288H41.5682C41.5682 19.1283 41.7238 19.8851 42.053 20.5436L42.9475 20.0964ZM42.5682 18.288V13.072H41.5682V18.288H42.5682ZM42.0682 13.572H44.7882V12.572H42.0682V13.572ZM44.2882 13.072V17.92H45.2882V13.072H44.2882ZM44.2882 17.92C44.2882 18.6026 44.4664 19.2038 44.8871 19.6536L45.6174 18.9704C45.4194 18.7588 45.2882 18.4321 45.2882 17.92H44.2882ZM44.8871 19.6536C45.3059 20.1012 45.8626 20.308 46.5003 20.308V19.308C46.0926 19.308 45.8173 19.1841 45.6174 18.9704L44.8871 19.6536ZM46.5003 20.308C47.1452 20.308 47.7086 20.1033 48.1294 19.6536L47.3991 18.9704C47.2012 19.182 46.922 19.308 46.5003 19.308V20.308ZM48.1294 19.6536C48.5501 19.2038 48.7282 18.6026 48.7282 17.92H47.7282C47.7282 18.4321 47.597 18.7588 47.3991 18.9704L48.1294 19.6536ZM48.7282 17.92V13.072H47.7282V17.92H48.7282ZM48.2282 13.572H50.9642V12.572H48.2282V13.572ZM61.2975 18.192V18.692H61.7431L61.7942 18.2493L61.2975 18.192ZM55.1055 18.192V17.692H54.5656L54.607 18.2303L55.1055 18.192ZM55.6335 19.472L55.2862 19.8317L55.2925 19.8378L55.299 19.8436L55.6335 19.472ZM58.2255 19.04V18.54H57.906L57.7718 18.8299L58.2255 19.04ZM61.1375 19.04L61.6221 19.1633L61.7807 18.54H61.1375V19.04ZM60.3215 20.624L59.9388 20.3022L59.9345 20.3074L60.3215 20.624ZM58.8655 21.728L59.0724 22.1832L58.8655 21.728ZM54.5615 21.568L54.3216 22.0067L54.5615 21.568ZM52.9615 19.968L53.3989 19.7257L52.9615 19.968ZM52.9455 15.104L52.5081 14.8617L52.5053 14.867L52.9455 15.104ZM54.5455 13.504L54.7854 13.9427L54.5455 13.504ZM59.2015 13.488L58.964 13.928L59.2015 13.488ZM60.7695 15.04L60.3324 15.2828L60.3354 15.2881L60.7695 15.04ZM58.5455 16.672V17.172H59.0455V16.672H58.5455ZM58.0655 15.552L58.393 15.1742L58.0655 15.552ZM55.6975 15.536L55.3774 15.1518L55.371 15.1573L55.6975 15.536ZM55.1215 16.672L54.6272 16.5968L54.5397 17.172H55.1215V16.672ZM60.8455 17.392C60.8455 17.6272 60.8308 17.8747 60.8008 18.1347L61.7942 18.2493C61.8282 17.9546 61.8455 17.6688 61.8455 17.392H60.8455ZM61.2975 17.692H55.1055V18.692H61.2975V17.692ZM54.607 18.2303C54.6562 18.8703 54.8655 19.4255 55.2862 19.8317L55.9808 19.1123C55.7828 18.9212 55.6401 18.6231 55.604 18.1537L54.607 18.2303ZM55.299 19.8436C55.7172 20.22 56.2281 20.404 56.8015 20.404V19.404C56.4575 19.404 56.1898 19.3 55.968 19.1004L55.299 19.8436ZM56.8015 20.404C57.2133 20.404 57.5972 20.3167 57.9289 20.1155C58.2629 19.9128 58.5103 19.6149 58.6792 19.2501L57.7718 18.8299C57.674 19.0411 57.5508 19.1752 57.4101 19.2605C57.2672 19.3473 57.0723 19.404 56.8015 19.404V20.404ZM58.2255 19.54H61.1375V18.54H58.2255V19.54ZM60.653 18.9167C60.5224 19.4294 60.2857 19.8897 59.9388 20.3022L60.7042 20.9458C61.1467 20.4196 61.4539 19.824 61.6221 19.1633L60.653 18.9167ZM59.9345 20.3074C59.6021 20.7136 59.1799 21.0359 58.6586 21.2728L59.0724 22.1832C59.7244 21.8868 60.2729 21.473 60.7085 20.9406L59.9345 20.3074ZM58.6586 21.2728C58.1446 21.5064 57.5604 21.628 56.8975 21.628V22.628C57.6852 22.628 58.413 22.4829 59.0724 22.1832L58.6586 21.2728ZM56.8975 21.628C56.0961 21.628 55.4018 21.4576 54.8014 21.1293L54.3216 22.0067C55.0866 22.425 55.9496 22.628 56.8975 22.628V21.628ZM54.8014 21.1293C54.2035 20.8023 53.7379 20.3379 53.3989 19.7257L52.5241 20.2102C52.9531 20.9848 53.5542 21.587 54.3216 22.0067L54.8014 21.1293ZM53.3989 19.7257C53.0625 19.1183 52.8855 18.3938 52.8855 17.536H51.8855C51.8855 18.5342 52.0925 19.431 52.5241 20.2102L53.3989 19.7257ZM52.8855 17.536C52.8855 16.676 53.0581 15.9495 53.3857 15.341L52.5053 14.867C52.0862 15.6451 51.8855 16.54 51.8855 17.536H52.8855ZM53.3829 15.3462C53.7219 14.7341 54.1875 14.2697 54.7854 13.9427L54.3056 13.0653C53.5382 13.485 52.9371 14.0872 52.5081 14.8617L53.3829 15.3462ZM54.7854 13.9427C55.3849 13.6148 56.0843 13.444 56.8975 13.444V12.444C55.94 12.444 55.0714 12.6465 54.3056 13.0653L54.7854 13.9427ZM56.8975 13.444C57.6896 13.444 58.3741 13.6096 58.964 13.928L59.439 13.048C58.6849 12.641 57.8334 12.444 56.8975 12.444V13.444ZM58.964 13.928C59.5514 14.245 60.0051 14.6937 60.3324 15.2828L61.2066 14.7972C60.7872 14.0423 60.1956 13.4563 59.439 13.048L58.964 13.928ZM60.3354 15.2881C60.6698 15.8733 60.8455 16.5691 60.8455 17.392H61.8455C61.8455 16.4229 61.6372 15.5507 61.2036 14.7919L60.3354 15.2881ZM59.0455 16.672C59.0455 16.0753 58.8352 15.5574 58.393 15.1742L57.738 15.9298C57.9358 16.1012 58.0455 16.33 58.0455 16.672H59.0455ZM58.393 15.1742C57.9699 14.8075 57.4487 14.636 56.8655 14.636V15.636C57.2423 15.636 57.5211 15.7418 57.738 15.9298L58.393 15.1742ZM56.8655 14.636C56.3025 14.636 55.7965 14.8026 55.3774 15.1519L56.0176 15.9201C56.2385 15.736 56.5112 15.636 56.8655 15.636V14.636ZM55.371 15.1573C54.9529 15.5177 54.7158 16.0146 54.6272 16.5968L55.6158 16.7472C55.6766 16.348 55.8234 16.0876 56.024 15.9147L55.371 15.1573ZM55.1215 17.172H58.5455V16.172H55.1215V17.172ZM65.5249 10.16H66.0249V9.66H65.5249V10.16ZM65.5249 22V22.5H66.0249V22H65.5249ZM62.7889 22H62.2889V22.5H62.7889V22ZM62.7889 10.16V9.66H62.2889V10.16H62.7889ZM65.0249 10.16V22H66.0249V10.16H65.0249ZM65.5249 21.5H62.7889V22.5H65.5249V21.5ZM63.2889 22V10.16H62.2889V22H63.2889ZM62.7889 10.66H65.5249V9.66H62.7889V10.66Z" fill="white"/>
<path d="M21.792 26.24C22.4427 26.3787 22.9653 26.704 23.36 27.216C23.7547 27.7173 23.952 28.2933 23.952 28.944C23.952 29.8827 23.6213 30.6293 22.96 31.184C22.3093 31.728 21.3973 32 20.224 32H14.992V20.768H20.048C21.1893 20.768 22.08 21.0293 22.72 21.552C23.3707 22.0747 23.696 22.784 23.696 23.68C23.696 24.3413 23.52 24.8907 23.168 25.328C22.8267 25.7653 22.368 26.0693 21.792 26.24ZM17.728 25.312H19.52C19.968 25.312 20.3093 25.216 20.544 25.024C20.7893 24.8213 20.912 24.528 20.912 24.144C20.912 23.76 20.7893 23.4667 20.544 23.264C20.3093 23.0613 19.968 22.96 19.52 22.96H17.728V25.312ZM19.744 29.792C20.2027 29.792 20.5547 29.6907 20.8 29.488C21.056 29.2747 21.184 28.9707 21.184 28.576C21.184 28.1813 21.0507 27.872 20.784 27.648C20.528 27.424 20.1707 27.312 19.712 27.312H17.728V29.792H19.744ZM24.9949 27.52C24.9949 26.6027 25.1655 25.7973 25.5069 25.104C25.8589 24.4107 26.3335 23.8773 26.9309 23.504C27.5282 23.1307 28.1949 22.944 28.9309 22.944C29.5602 22.944 30.1095 23.072 30.5789 23.328C31.0589 23.584 31.4269 23.92 31.6829 24.336V23.072H34.4189V32H31.6829V30.736C31.4162 31.152 31.0429 31.488 30.5629 31.744C30.0935 32 29.5442 32.128 28.9149 32.128C28.1895 32.128 27.5282 31.9413 26.9309 31.568C26.3335 31.184 25.8589 30.6453 25.5069 29.952C25.1655 29.248 24.9949 28.4373 24.9949 27.52ZM31.6829 27.536C31.6829 26.8533 31.4909 26.3147 31.1069 25.92C30.7335 25.5253 30.2749 25.328 29.7309 25.328C29.1869 25.328 28.7229 25.5253 28.3389 25.92C27.9655 26.304 27.7789 26.8373 27.7789 27.52C27.7789 28.2027 27.9655 28.7467 28.3389 29.152C28.7229 29.5467 29.1869 29.744 29.7309 29.744C30.2749 29.744 30.7335 29.5467 31.1069 29.152C31.4909 28.7573 31.6829 28.2187 31.6829 27.536ZM45.2143 23.072V32H42.4783V30.784C42.2009 31.1787 41.8223 31.4987 41.3423 31.744C40.8729 31.9787 40.3503 32.096 39.7743 32.096C39.0916 32.096 38.4889 31.9467 37.9663 31.648C37.4436 31.3387 37.0383 30.896 36.7503 30.32C36.4623 29.744 36.3183 29.0667 36.3183 28.288V23.072H39.0383V27.92C39.0383 28.5173 39.1929 28.9813 39.5023 29.312C39.8116 29.6427 40.2276 29.808 40.7503 29.808C41.2836 29.808 41.7049 29.6427 42.0143 29.312C42.3236 28.9813 42.4783 28.5173 42.4783 27.92V23.072H45.2143ZM58.5715 22.976C59.6808 22.976 60.5608 23.312 61.2115 23.984C61.8728 24.656 62.2035 25.5893 62.2035 26.784V32H59.4835V27.152C59.4835 26.576 59.3288 26.1333 59.0195 25.824C58.7208 25.504 58.3048 25.344 57.7715 25.344C57.2382 25.344 56.8168 25.504 56.5075 25.824C56.2088 26.1333 56.0595 26.576 56.0595 27.152V32H53.3395V27.152C53.3395 26.576 53.1848 26.1333 52.8755 25.824C52.5768 25.504 52.1608 25.344 51.6275 25.344C51.0942 25.344 50.6728 25.504 50.3635 25.824C50.0648 26.1333 49.9155 26.576 49.9155 27.152V32H47.1795V23.072H49.9155V24.192C50.1928 23.8187 50.5555 23.5253 51.0035 23.312C51.4515 23.088 51.9582 22.976 52.5235 22.976C53.1955 22.976 53.7928 23.12 54.3155 23.408C54.8488 23.696 55.2648 24.1067 55.5635 24.64C55.8728 24.1493 56.2942 23.7493 56.8275 23.44C57.3608 23.1307 57.9422 22.976 58.5715 22.976ZM63.573 27.52C63.573 26.6027 63.7437 25.7973 64.085 25.104C64.437 24.4107 64.9117 23.8773 65.509 23.504C66.1063 23.1307 66.773 22.944 67.509 22.944C68.1383 22.944 68.6877 23.072 69.157 23.328C69.637 23.584 70.005 23.92 70.261 24.336V23.072H72.997V32H70.261V30.736C69.9943 31.152 69.621 31.488 69.141 31.744C68.6717 32 68.1223 32.128 67.493 32.128C66.7677 32.128 66.1063 31.9413 65.509 31.568C64.9117 31.184 64.437 30.6453 64.085 29.952C63.7437 29.248 63.573 28.4373 63.573 27.52ZM70.261 27.536C70.261 26.8533 70.069 26.3147 69.685 25.92C69.3117 25.5253 68.853 25.328 68.309 25.328C67.765 25.328 67.301 25.5253 66.917 25.92C66.5437 26.304 66.357 26.8373 66.357 27.52C66.357 28.2027 66.5437 28.7467 66.917 29.152C67.301 29.5467 67.765 29.744 68.309 29.744C68.853 29.744 69.3117 29.5467 69.685 29.152C70.069 28.7573 70.261 28.2187 70.261 27.536ZM80.4164 22.976C81.4617 22.976 82.2937 23.3173 82.9124 24C83.5417 24.672 83.8564 25.6 83.8564 26.784V32H81.1364V27.152C81.1364 26.5547 80.9817 26.0907 80.6724 25.76C80.363 25.4293 79.947 25.264 79.4244 25.264C78.9017 25.264 78.4857 25.4293 78.1764 25.76C77.867 26.0907 77.7124 26.5547 77.7124 27.152V32H74.9764V23.072H77.7124V24.256C77.9897 23.8613 78.363 23.552 78.8324 23.328C79.3017 23.0933 79.8297 22.976 80.4164 22.976ZM91.1976 22.976C92.243 22.976 93.075 23.3173 93.6936 24C94.323 24.672 94.6376 25.6 94.6376 26.784V32H91.9176V27.152C91.9176 26.5547 91.763 26.0907 91.4536 25.76C91.1443 25.4293 90.7283 25.264 90.2056 25.264C89.683 25.264 89.267 25.4293 88.9576 25.76C88.6483 26.0907 88.4936 26.5547 88.4936 27.152V32H85.7576V23.072H88.4936V24.256C88.771 23.8613 89.1443 23.552 89.6136 23.328C90.083 23.0933 90.611 22.976 91.1976 22.976Z" fill="#0BB8B6"/>
<path d="M21.792 26.24L21.65 25.7606L21.6878 26.729L21.792 26.24ZM23.36 27.216L22.964 27.5213L22.9671 27.5253L23.36 27.216ZM22.96 31.184L23.2807 31.5676L23.2813 31.5671L22.96 31.184ZM14.992 32H14.492V32.5H14.992V32ZM14.992 20.768V20.268H14.492V20.768H14.992ZM22.72 21.552L22.4037 21.9393L22.4069 21.9418L22.72 21.552ZM23.168 25.328L22.7785 25.0145L22.7738 25.0204L23.168 25.328ZM17.728 25.312H17.228V25.812H17.728V25.312ZM20.544 25.024L20.8606 25.411L20.8624 25.4095L20.544 25.024ZM20.544 23.264L20.2171 23.6425L20.2256 23.6495L20.544 23.264ZM17.728 22.96V22.46H17.228V22.96H17.728ZM20.8 29.488L21.1184 29.8735L21.1201 29.8721L20.8 29.488ZM20.784 27.648L20.4547 28.0244L20.4624 28.0309L20.784 27.648ZM17.728 27.312V26.812H17.228V27.312H17.728ZM17.728 29.792H17.228V30.292H17.728V29.792ZM21.6878 26.729C22.2262 26.8438 22.644 27.1061 22.964 27.5213L23.756 26.9107C23.2867 26.3019 22.6592 25.9136 21.8962 25.751L21.6878 26.729ZM22.9671 27.5253C23.2909 27.9366 23.452 28.4031 23.452 28.944H24.452C24.452 28.1835 24.2184 27.4981 23.7529 26.9067L22.9671 27.5253ZM23.452 28.944C23.452 29.7495 23.176 30.3503 22.6387 30.8009L23.2813 31.5671C24.0667 30.9084 24.452 30.0158 24.452 28.944H23.452ZM22.6393 30.8004C22.1077 31.2448 21.3248 31.5 20.224 31.5V32.5C21.4699 32.5 22.5109 32.2112 23.2807 31.5676L22.6393 30.8004ZM20.224 31.5H14.992V32.5H20.224V31.5ZM15.492 32V20.768H14.492V32H15.492ZM14.992 21.268H20.048V20.268H14.992V21.268ZM20.048 21.268C21.1176 21.268 21.8817 21.513 22.4037 21.9393L23.0363 21.1647C22.2783 20.5457 21.261 20.268 20.048 20.268V21.268ZM22.4069 21.9418C22.9298 22.3618 23.196 22.9227 23.196 23.68H24.196C24.196 22.6453 23.8116 21.7875 23.0331 21.1622L22.4069 21.9418ZM23.196 23.68C23.196 24.2485 23.0467 24.6812 22.7785 25.0145L23.5575 25.6415C23.9933 25.1001 24.196 24.4342 24.196 23.68H23.196ZM22.7738 25.0204C22.502 25.3687 22.1348 25.6169 21.65 25.7606L21.934 26.7194C22.6012 26.5217 23.1514 26.162 23.5622 25.6356L22.7738 25.0204ZM17.728 25.812H19.52V24.812H17.728V25.812ZM19.52 25.812C20.0302 25.812 20.5026 25.7039 20.8606 25.411L20.2274 24.637C20.116 24.7281 19.9058 24.812 19.52 24.812V25.812ZM20.8624 25.4095C21.2466 25.0921 21.412 24.6431 21.412 24.144H20.412C20.412 24.4129 20.332 24.5506 20.2256 24.6385L20.8624 25.4095ZM21.412 24.144C21.412 23.6449 21.2466 23.1959 20.8624 22.8785L20.2256 23.6495C20.332 23.7374 20.412 23.8751 20.412 24.144H21.412ZM20.8708 22.8856C20.5123 22.5759 20.0356 22.46 19.52 22.46V23.46C19.9004 23.46 20.1064 23.5467 20.2172 23.6424L20.8708 22.8856ZM19.52 22.46H17.728V23.46H19.52V22.46ZM17.228 22.96V25.312H18.228V22.96H17.228ZM19.744 30.292C20.2688 30.292 20.7513 30.1768 21.1184 29.8735L20.4816 29.1025C20.3581 29.2045 20.1365 29.292 19.744 29.292V30.292ZM21.1201 29.8721C21.5115 29.546 21.684 29.0888 21.684 28.576H20.684C20.684 28.8526 20.6005 29.0034 20.4799 29.1039L21.1201 29.8721ZM21.684 28.576C21.684 28.0557 21.5012 27.5975 21.1056 27.2651L20.4624 28.0309C20.6001 28.1465 20.684 28.307 20.684 28.576H21.684ZM21.1133 27.2717C20.7385 26.9438 20.2492 26.812 19.712 26.812V27.812C20.0921 27.812 20.3175 27.9042 20.4547 28.0243L21.1133 27.2717ZM19.712 26.812H17.728V27.812H19.712V26.812ZM17.228 27.312V29.792H18.228V27.312H17.228ZM17.728 30.292H19.744V29.292H17.728V30.292ZM25.5069 25.104L25.061 24.8776L25.0583 24.8832L25.5069 25.104ZM26.9309 23.504L27.1959 23.928L26.9309 23.504ZM30.5789 23.328L30.3394 23.767L30.3436 23.7692L30.5789 23.328ZM31.6829 24.336L31.257 24.598L32.1829 26.1025V24.336H31.6829ZM31.6829 23.072V22.572H31.1829V23.072H31.6829ZM34.4189 23.072H34.9189V22.572H34.4189V23.072ZM34.4189 32V32.5H34.9189V32H34.4189ZM31.6829 32H31.1829V32.5H31.6829V32ZM31.6829 30.736H32.1829V29.0295L31.2619 30.4662L31.6829 30.736ZM30.5629 31.744L30.3276 31.3028L30.3235 31.3051L30.5629 31.744ZM26.9309 31.568L26.6605 31.9886L26.6659 31.992L26.9309 31.568ZM25.5069 29.952L25.0569 30.1702L25.061 30.1783L25.5069 29.952ZM31.1069 25.92L30.7436 26.2636L30.7485 26.2687L31.1069 25.92ZM28.3389 25.92L27.9805 25.5713L27.9804 25.5715L28.3389 25.92ZM28.3389 29.152L27.971 29.4909L27.9805 29.5007L28.3389 29.152ZM31.1069 29.152L30.7485 28.8033L30.7436 28.8084L31.1069 29.152ZM25.4949 27.52C25.4949 26.665 25.6537 25.9378 25.9555 25.3248L25.0583 24.8832C24.6774 25.6569 24.4949 26.5403 24.4949 27.52H25.4949ZM25.9527 25.3303C26.2679 24.7094 26.6835 24.2482 27.1959 23.928L26.6659 23.08C25.9836 23.5065 25.4498 24.1119 25.061 24.8777L25.9527 25.3303ZM27.1959 23.928C27.7101 23.6066 28.2842 23.444 28.9309 23.444V22.444C28.1056 22.444 27.3463 22.6547 26.6659 23.08L27.1959 23.928ZM28.9309 23.444C29.4914 23.444 29.9556 23.5576 30.3394 23.7669L30.8183 22.8891C30.2635 22.5864 29.629 22.444 28.9309 22.444V23.444ZM30.3436 23.7692C30.7544 23.9883 31.0527 24.2659 31.257 24.598L32.1087 24.074C31.8011 23.5741 31.3633 23.1797 30.8142 22.8868L30.3436 23.7692ZM32.1829 24.336V23.072H31.1829V24.336H32.1829ZM31.6829 23.572H34.4189V22.572H31.6829V23.572ZM33.9189 23.072V32H34.9189V23.072H33.9189ZM34.4189 31.5H31.6829V32.5H34.4189V31.5ZM32.1829 32V30.736H31.1829V32H32.1829ZM31.2619 30.4662C31.046 30.803 30.7399 31.0829 30.3276 31.3028L30.7982 32.1852C31.3459 31.8931 31.7864 31.501 32.1038 31.0058L31.2619 30.4662ZM30.3235 31.3051C29.9396 31.5144 29.4754 31.628 28.9149 31.628V32.628C29.613 32.628 30.2475 32.4856 30.8023 32.1829L30.3235 31.3051ZM28.9149 31.628C28.2803 31.628 27.7113 31.4661 27.1959 31.144L26.6659 31.992C27.3451 32.4165 28.0988 32.628 28.9149 32.628V31.628ZM27.2013 31.1474C26.6856 30.8159 26.2684 30.3476 25.9527 29.7257L25.061 30.1783C25.4493 30.9431 25.9815 31.5521 26.6605 31.9886L27.2013 31.1474ZM25.9568 29.7339C25.6536 29.1086 25.4949 28.3747 25.4949 27.52H24.4949C24.4949 28.4999 24.6774 29.3874 25.057 30.1701L25.9568 29.7339ZM32.1829 27.536C32.1829 26.756 31.9607 26.0805 31.4652 25.5713L30.7485 26.2687C31.0211 26.5488 31.1829 26.9506 31.1829 27.536H32.1829ZM31.4701 25.5764C31.0022 25.0817 30.4121 24.828 29.7309 24.828V25.828C30.1377 25.828 30.4649 25.9689 30.7436 26.2636L31.4701 25.5764ZM29.7309 24.828C29.05 24.828 28.4573 25.0812 27.9805 25.5713L28.6972 26.2687C28.9884 25.9694 29.3237 25.828 29.7309 25.828V24.828ZM27.9804 25.5715C27.4932 26.0725 27.2789 26.7445 27.2789 27.52H28.2789C28.2789 26.9301 28.4379 26.5355 28.6974 26.2685L27.9804 25.5715ZM27.2789 27.52C27.2789 28.2968 27.4936 28.9724 27.9711 29.4907L28.7066 28.8133C28.4374 28.521 28.2789 28.1085 28.2789 27.52H27.2789ZM27.9805 29.5007C28.4573 29.9908 29.05 30.244 29.7309 30.244V29.244C29.3237 29.244 28.9884 29.1026 28.6972 28.8033L27.9805 29.5007ZM29.7309 30.244C30.4121 30.244 31.0022 29.9903 31.4701 29.4956L30.7436 28.8084C30.4649 29.1031 30.1377 29.244 29.7309 29.244V30.244ZM31.4652 29.5007C31.9607 28.9915 32.1829 28.316 32.1829 27.536H31.1829C31.1829 28.1214 31.0211 28.5232 30.7485 28.8033L31.4652 29.5007ZM45.2143 23.072H45.7143V22.572H45.2143V23.072ZM45.2143 32V32.5H45.7143V32H45.2143ZM42.4783 32H41.9783V32.5H42.4783V32ZM42.4783 30.784H42.9783V29.2028L42.0692 30.4965L42.4783 30.784ZM41.3423 31.744L41.5659 32.1912L41.5698 32.1892L41.3423 31.744ZM37.9662 31.648L37.7116 32.0783L37.7182 32.0821L37.9662 31.648ZM36.7502 30.32L36.303 30.5436L36.7502 30.32ZM36.3183 23.072V22.572H35.8183V23.072H36.3183ZM39.0382 23.072H39.5382V22.572H39.0382V23.072ZM39.5023 29.312L39.1371 29.6536H39.1371L39.5023 29.312ZM42.4783 23.072V22.572H41.9783V23.072H42.4783ZM44.7143 23.072V32H45.7143V23.072H44.7143ZM45.2143 31.5H42.4783V32.5H45.2143V31.5ZM42.9783 32V30.784H41.9783V32H42.9783ZM42.0692 30.4965C41.8439 30.8171 41.5309 31.0861 41.1147 31.2988L41.5698 32.1892C42.1136 31.9113 42.558 31.5402 42.8873 31.0715L42.0692 30.4965ZM41.1186 31.2968C40.7253 31.4935 40.2803 31.596 39.7743 31.596V32.596C40.4202 32.596 41.0205 32.4639 41.5659 32.1912L41.1186 31.2968ZM39.7743 31.596C39.1667 31.596 38.6518 31.4638 38.2143 31.2139L37.7182 32.0821C38.3261 32.4295 39.0164 32.596 39.7743 32.596V31.596ZM38.2209 31.2177C37.786 30.9603 37.4452 30.5919 37.1975 30.0964L36.303 30.5436C36.6313 31.2001 37.1011 31.717 37.7116 32.0783L38.2209 31.2177ZM37.1975 30.0964C36.9507 29.6029 36.8183 29.0051 36.8183 28.288H35.8183C35.8183 29.1283 35.9738 29.8851 36.303 30.5436L37.1975 30.0964ZM36.8183 28.288V23.072H35.8183V28.288H36.8183ZM36.3183 23.572H39.0382V22.572H36.3183V23.572ZM38.5382 23.072V27.92H39.5382V23.072H38.5382ZM38.5382 27.92C38.5382 28.6026 38.7164 29.2038 39.1371 29.6536L39.8674 28.9704C39.6694 28.7588 39.5382 28.4321 39.5382 27.92H38.5382ZM39.1371 29.6536C39.5559 30.1012 40.1126 30.308 40.7502 30.308V29.308C40.3426 29.308 40.0673 29.1841 39.8674 28.9704L39.1371 29.6536ZM40.7502 30.308C41.3952 30.308 41.9586 30.1033 42.3794 29.6536L41.6491 28.9704C41.4512 29.182 41.172 29.308 40.7502 29.308V30.308ZM42.3794 29.6536C42.8001 29.2038 42.9783 28.6026 42.9783 27.92H41.9783C41.9783 28.4321 41.8471 28.7588 41.6491 28.9704L42.3794 29.6536ZM42.9783 27.92V23.072H41.9783V27.92H42.9783ZM42.4783 23.572H45.2143V22.572H42.4783V23.572ZM61.2115 23.984L60.8523 24.3318L60.8551 24.3347L61.2115 23.984ZM62.2035 32V32.5H62.7035V32H62.2035ZM59.4835 32H58.9835V32.5H59.4835V32ZM59.0195 25.824L58.654 26.1652L58.6599 26.1715L58.6659 26.1776L59.0195 25.824ZM56.5075 25.824L56.148 25.4765L56.1478 25.4767L56.5075 25.824ZM56.0595 32V32.5H56.5595V32H56.0595ZM53.3395 32H52.8395V32.5H53.3395V32ZM52.8755 25.824L52.51 26.1652L52.5159 26.1715L52.5219 26.1776L52.8755 25.824ZM50.3635 25.824L50.004 25.4765L50.0038 25.4767L50.3635 25.824ZM49.9155 32V32.5H50.4155V32H49.9155ZM47.1795 32H46.6795V32.5H47.1795V32ZM47.1795 23.072V22.572H46.6795V23.072H47.1795ZM49.9155 23.072H50.4155V22.572H49.9155V23.072ZM49.9155 24.192H49.4155V25.7035L50.3169 24.4902L49.9155 24.192ZM51.0035 23.312L51.2185 23.7635L51.2271 23.7592L51.0035 23.312ZM54.3155 23.408L54.0742 23.8459L54.0779 23.848L54.3155 23.408ZM55.5635 24.64L55.1272 24.8843L55.5381 25.6179L55.9865 24.9067L55.5635 24.64ZM58.5715 23.476C59.5726 23.476 60.3132 23.775 60.8523 24.3318L61.5707 23.6362C60.8085 22.849 59.7891 22.476 58.5715 22.476V23.476ZM60.8551 24.3347C61.4015 24.8899 61.7035 25.6838 61.7035 26.784H62.7035C62.7035 25.4949 62.3442 24.4221 61.5679 23.6333L60.8551 24.3347ZM61.7035 26.784V32H62.7035V26.784H61.7035ZM62.2035 31.5H59.4835V32.5H62.2035V31.5ZM59.9835 32V27.152H58.9835V32H59.9835ZM59.9835 27.152C59.9835 26.487 59.803 25.9004 59.3731 25.4704L58.6659 26.1776C58.8546 26.3662 58.9835 26.665 58.9835 27.152H59.9835ZM59.385 25.4828C58.9716 25.0399 58.4108 24.844 57.7715 24.844V25.844C58.1988 25.844 58.47 25.9681 58.654 26.1652L59.385 25.4828ZM57.7715 24.844C57.1316 24.844 56.5699 25.04 56.148 25.4765L56.867 26.1715C57.0637 25.968 57.3448 25.844 57.7715 25.844V24.844ZM56.1478 25.4767C55.732 25.9073 55.5595 26.4916 55.5595 27.152H56.5595C56.5595 26.6604 56.6856 26.3593 56.8672 26.1713L56.1478 25.4767ZM55.5595 27.152V32H56.5595V27.152H55.5595ZM56.0595 31.5H53.3395V32.5H56.0595V31.5ZM53.8395 32V27.152H52.8395V32H53.8395ZM53.8395 27.152C53.8395 26.487 53.659 25.9004 53.2291 25.4704L52.5219 26.1776C52.7106 26.3662 52.8395 26.665 52.8395 27.152H53.8395ZM53.241 25.4828C52.8276 25.0399 52.2668 24.844 51.6275 24.844V25.844C52.0548 25.844 52.326 25.9681 52.51 26.1652L53.241 25.4828ZM51.6275 24.844C50.9876 24.844 50.4259 25.04 50.004 25.4765L50.723 26.1715C50.9197 25.968 51.2008 25.844 51.6275 25.844V24.844ZM50.0038 25.4767C49.588 25.9073 49.4155 26.4916 49.4155 27.152H50.4155C50.4155 26.6604 50.5416 26.3593 50.7232 26.1713L50.0038 25.4767ZM49.4155 27.152V32H50.4155V27.152H49.4155ZM49.9155 31.5H47.1795V32.5H49.9155V31.5ZM47.6795 32V23.072H46.6795V32H47.6795ZM47.1795 23.572H49.9155V22.572H47.1795V23.572ZM49.4155 23.072V24.192H50.4155V23.072H49.4155ZM50.3169 24.4902C50.5423 24.1867 50.8391 23.9441 51.2185 23.7634L50.7885 22.8606C50.2719 23.1066 49.8434 23.4506 49.5141 23.8938L50.3169 24.4902ZM51.2271 23.7592C51.5972 23.5742 52.0257 23.476 52.5235 23.476V22.476C51.8906 22.476 51.3058 22.6018 50.7799 22.8648L51.2271 23.7592ZM52.5235 23.476C53.1219 23.476 53.6344 23.6036 54.0742 23.8459L54.5568 22.9701C53.9513 22.6364 53.2691 22.476 52.5235 22.476V23.476ZM54.0779 23.848C54.5271 24.0905 54.8745 24.433 55.1272 24.8843L55.9998 24.3957C55.6552 23.7804 55.1706 23.3015 54.5531 22.968L54.0779 23.848ZM55.9865 24.9067C56.25 24.4887 56.6104 24.1439 57.0784 23.8725L56.5766 23.0075C55.9779 23.3548 55.4957 23.81 55.1405 24.3733L55.9865 24.9067ZM57.0784 23.8725C57.5338 23.6083 58.0284 23.476 58.5715 23.476V22.476C57.856 22.476 57.1878 22.653 56.5766 23.0075L57.0784 23.8725ZM64.085 25.104L63.6391 24.8776L63.6364 24.8832L64.085 25.104ZM65.509 23.504L65.774 23.928L65.509 23.504ZM69.157 23.328L68.9176 23.767L68.9217 23.7692L69.157 23.328ZM70.261 24.336L69.8352 24.598L70.761 26.1025V24.336H70.261ZM70.261 23.072V22.572H69.761V23.072H70.261ZM72.997 23.072H73.497V22.572H72.997V23.072ZM72.997 32V32.5H73.497V32H72.997ZM70.261 32H69.761V32.5H70.261V32ZM70.261 30.736H70.761V29.0295L69.8401 30.4662L70.261 30.736ZM69.141 31.744L68.9057 31.3028L68.9016 31.3051L69.141 31.744ZM65.509 31.568L65.2386 31.9886L65.244 31.992L65.509 31.568ZM64.085 29.952L63.635 30.1702L63.6392 30.1783L64.085 29.952ZM69.685 25.92L69.3217 26.2636L69.3266 26.2687L69.685 25.92ZM66.917 25.92L66.5586 25.5713L66.5585 25.5715L66.917 25.92ZM66.917 29.152L66.5491 29.4909L66.5586 29.5007L66.917 29.152ZM69.685 29.152L69.3266 28.8033L69.3218 28.8084L69.685 29.152ZM64.073 27.52C64.073 26.665 64.2318 25.9378 64.5336 25.3248L63.6364 24.8832C63.2555 25.6569 63.073 26.5403 63.073 27.52H64.073ZM64.5308 25.3303C64.8461 24.7094 65.2617 24.2482 65.774 23.928L65.244 23.08C64.5617 23.5065 64.0279 24.1119 63.6392 24.8777L64.5308 25.3303ZM65.774 23.928C66.2882 23.6066 66.8623 23.444 67.509 23.444V22.444C66.6837 22.444 65.9245 22.6547 65.244 23.08L65.774 23.928ZM67.509 23.444C68.0695 23.444 68.5337 23.5576 68.9176 23.7669L69.3964 22.8891C68.8416 22.5864 68.2071 22.444 67.509 22.444V23.444ZM68.9217 23.7692C69.3326 23.9883 69.6308 24.2659 69.8352 24.598L70.6868 24.074C70.3792 23.5741 69.9415 23.1797 69.3923 22.8868L68.9217 23.7692ZM70.761 24.336V23.072H69.761V24.336H70.761ZM70.261 23.572H72.997V22.572H70.261V23.572ZM72.497 23.072V32H73.497V23.072H72.497ZM72.997 31.5H70.261V32.5H72.997V31.5ZM70.761 32V30.736H69.761V32H70.761ZM69.8401 30.4662C69.6241 30.803 69.318 31.0829 68.9057 31.3028L69.3763 32.1852C69.924 31.8931 70.3645 31.501 70.6819 31.0058L69.8401 30.4662ZM68.9016 31.3051C68.5177 31.5144 68.0535 31.628 67.493 31.628V32.628C68.1911 32.628 68.8256 32.4856 69.3804 32.1829L68.9016 31.3051ZM67.493 31.628C66.8584 31.628 66.2894 31.4661 65.774 31.144L65.244 31.992C65.9233 32.4165 66.6769 32.628 67.493 32.628V31.628ZM65.7794 31.1474C65.2637 30.8159 64.8466 30.3476 64.5308 29.7257L63.6392 30.1783C64.0274 30.9431 64.5596 31.5521 65.2386 31.9886L65.7794 31.1474ZM64.5349 29.7339C64.2318 29.1086 64.073 28.3747 64.073 27.52H63.073C63.073 28.4999 63.2556 29.3874 63.6351 30.1701L64.5349 29.7339ZM70.761 27.536C70.761 26.756 70.5388 26.0805 70.0434 25.5713L69.3266 26.2687C69.5992 26.5488 69.761 26.9506 69.761 27.536H70.761ZM70.0482 25.5764C69.5803 25.0817 68.9902 24.828 68.309 24.828V25.828C68.7158 25.828 69.043 25.9689 69.3218 26.2636L70.0482 25.5764ZM68.309 24.828C67.6282 24.828 67.0355 25.0812 66.5586 25.5713L67.2754 26.2687C67.5665 25.9694 67.9018 25.828 68.309 25.828V24.828ZM66.5585 25.5715C66.0714 26.0725 65.857 26.7445 65.857 27.52H66.857C66.857 26.9301 67.016 26.5355 67.2755 26.2685L66.5585 25.5715ZM65.857 27.52C65.857 28.2968 66.0718 28.9724 66.5492 29.4907L67.2848 28.8133C67.0156 28.521 66.857 28.1085 66.857 27.52H65.857ZM66.5586 29.5007C67.0355 29.9908 67.6282 30.244 68.309 30.244V29.244C67.9018 29.244 67.5665 29.1026 67.2754 28.8033L66.5586 29.5007ZM68.309 30.244C68.9902 30.244 69.5803 29.9903 70.0482 29.4956L69.3218 28.8084C69.043 29.1031 68.7158 29.244 68.309 29.244V30.244ZM70.0434 29.5007C70.5388 28.9915 70.761 28.316 70.761 27.536H69.761C69.761 28.1214 69.5992 28.5232 69.3266 28.8033L70.0434 29.5007ZM82.9124 24L82.5418 24.3358L82.5474 24.3418L82.9124 24ZM83.8564 32V32.5H84.3564V32H83.8564ZM81.1364 32H80.6364V32.5H81.1364V32ZM80.6724 25.76L80.3072 26.1016L80.3072 26.1016L80.6724 25.76ZM78.1764 25.76L78.5415 26.1016V26.1016L78.1764 25.76ZM77.7124 32V32.5H78.2124V32H77.7124ZM74.9764 32H74.4764V32.5H74.9764V32ZM74.9764 23.072V22.572H74.4764V23.072H74.9764ZM77.7124 23.072H78.2124V22.572H77.7124V23.072ZM77.7124 24.256H77.2124V25.8372L78.1215 24.5435L77.7124 24.256ZM78.8324 23.328L79.0478 23.7793L79.056 23.7752L78.8324 23.328ZM80.4164 23.476C81.3416 23.476 82.0312 23.7723 82.5419 24.3358L83.2829 23.6642C82.5562 22.8624 81.5818 22.476 80.4164 22.476V23.476ZM82.5474 24.3418C83.0673 24.8969 83.3564 25.6893 83.3564 26.784H84.3564C84.3564 25.5107 84.0161 24.4471 83.2773 23.6582L82.5474 24.3418ZM83.3564 26.784V32H84.3564V26.784H83.3564ZM83.8564 31.5H81.1364V32.5H83.8564V31.5ZM81.6364 32V27.152H80.6364V32H81.6364ZM81.6364 27.152C81.6364 26.4694 81.4582 25.8682 81.0375 25.4184L80.3072 26.1016C80.5052 26.3132 80.6364 26.6399 80.6364 27.152H81.6364ZM81.0375 25.4184C80.6188 24.9708 80.062 24.764 79.4244 24.764V25.764C79.832 25.764 80.1073 25.8879 80.3072 26.1016L81.0375 25.4184ZM79.4244 24.764C78.7867 24.764 78.23 24.9708 77.8112 25.4184L78.5415 26.1016C78.7414 25.8879 79.0167 25.764 79.4244 25.764V24.764ZM77.8112 25.4184C77.3905 25.8682 77.2124 26.4694 77.2124 27.152H78.2124C78.2124 26.6399 78.3436 26.3132 78.5415 26.1016L77.8112 25.4184ZM77.2124 27.152V32H78.2124V27.152H77.2124ZM77.7124 31.5H74.9764V32.5H77.7124V31.5ZM75.4764 32V23.072H74.4764V32H75.4764ZM74.9764 23.572H77.7124V22.572H74.9764V23.572ZM77.2124 23.072V24.256H78.2124V23.072H77.2124ZM78.1215 24.5435C78.3455 24.2246 78.6497 23.9692 79.0477 23.7792L78.617 22.8768C78.0763 23.1348 77.6339 23.4981 77.3033 23.9685L78.1215 24.5435ZM79.056 23.7752C79.4481 23.5792 79.8981 23.476 80.4164 23.476V22.476C79.7613 22.476 79.1554 22.6075 78.6088 22.8808L79.056 23.7752ZM93.6936 24L93.3231 24.3358L93.3287 24.3418L93.6936 24ZM94.6376 32V32.5H95.1376V32H94.6376ZM91.9176 32H91.4176V32.5H91.9176V32ZM91.4536 25.76L91.0885 26.1016L91.0885 26.1016L91.4536 25.76ZM88.9576 25.76L89.3228 26.1016V26.1016L88.9576 25.76ZM88.4936 32V32.5H88.9936V32H88.4936ZM85.7576 32H85.2576V32.5H85.7576V32ZM85.7576 23.072V22.572H85.2576V23.072H85.7576ZM88.4936 23.072H88.9936V22.572H88.4936V23.072ZM88.4936 24.256H87.9936V25.8372L88.9027 24.5435L88.4936 24.256ZM89.6136 23.328L89.829 23.7793L89.8372 23.7752L89.6136 23.328ZM91.1976 23.476C92.1228 23.476 92.8125 23.7723 93.3231 24.3358L94.0641 23.6642C93.3374 22.8624 92.3631 22.476 91.1976 22.476V23.476ZM93.3287 24.3418C93.8486 24.8969 94.1376 25.6893 94.1376 26.784H95.1376C95.1376 25.5107 94.7974 24.4471 94.0586 23.6582L93.3287 24.3418ZM94.1376 26.784V32H95.1376V26.784H94.1376ZM94.6376 31.5H91.9176V32.5H94.6376V31.5ZM92.4176 32V27.152H91.4176V32H92.4176ZM92.4176 27.152C92.4176 26.4694 92.2395 25.8682 91.8188 25.4184L91.0885 26.1016C91.2864 26.3132 91.4176 26.6399 91.4176 27.152H92.4176ZM91.8188 25.4184C91.4 24.9708 90.8433 24.764 90.2056 24.764V25.764C90.6133 25.764 90.8886 25.8879 91.0885 26.1016L91.8188 25.4184ZM90.2056 24.764C89.5679 24.764 89.0112 24.9708 88.5925 25.4184L89.3228 26.1016C89.5227 25.8879 89.798 25.764 90.2056 25.764V24.764ZM88.5925 25.4184C88.1718 25.8682 87.9936 26.4694 87.9936 27.152H88.9936C88.9936 26.6399 89.1248 26.3132 89.3228 26.1016L88.5925 25.4184ZM87.9936 27.152V32H88.9936V27.152H87.9936ZM88.4936 31.5H85.7576V32.5H88.4936V31.5ZM86.2576 32V23.072H85.2576V32H86.2576ZM85.7576 23.572H88.4936V22.572H85.7576V23.572ZM87.9936 23.072V24.256H88.9936V23.072H87.9936ZM88.9027 24.5435C89.1268 24.2246 89.431 23.9692 89.829 23.7792L89.3983 22.8768C88.8576 23.1348 88.4151 23.4981 88.0845 23.9685L88.9027 24.5435ZM89.8372 23.7752C90.2293 23.5792 90.6793 23.476 91.1976 23.476V22.476C90.5426 22.476 89.9366 22.6075 89.39 22.8808L89.8372 23.7752Z" fill="white"/>
</g>
<defs>
<filter id="filter0_d_103_770" x="-0.00799561" y="0.160156" width="104.646" height="41.9678" filterUnits="userSpaceOnUse" color-interpolation-filters="sRGB">
<feFlood flood-opacity="0" result="BackgroundImageFix"/>
<feColorMatrix in="SourceAlpha" type="matrix" values="0 0 0 0 0 0 0 0 0 0 0 0 0 0 0 0 0 0 127 0" result="hardAlpha"/>
<feOffset/>
<feGaussianBlur stdDeviation="5"/>
<feComposite in2="hardAlpha" operator="out"/>
<feColorMatrix type="matrix" values="0 0 0 0 0 0 0 0 0 0 0 0 0 0 0 0 0 0 0.1 0"/>
<feBlend mode="normal" in2="BackgroundImageFix" result="effect1_dropShadow_103_770"/>
<feBlend mode="normal" in="SourceGraphic" in2="effect1_dropShadow_103_770" result="shape"/>
</filter>
</defs>
</svg>
