<svg width="138" height="18" viewBox="0 0 138 18" fill="none" xmlns="http://www.w3.org/2000/svg">
<path d="M17.894 7.1708C17.9835 6.70157 17.6256 6.13849 17.1782 6.13849L12.0784 5.38771L9.75222 0.507669C9.66275 0.319975 9.57328 0.226128 9.39434 0.132281C8.94699 -0.14926 8.41018 0.0384341 8.14177 0.507669L5.90502 5.38771L0.80523 6.13849C0.53682 6.13849 0.35788 6.23233 0.26841 6.42003C-0.08947 6.79542 -0.08947 7.3585 0.26841 7.73388L3.93668 11.4878L3.04198 16.837C3.04198 17.0247 3.04198 17.2124 3.13145 17.4001C3.39986 17.8694 3.93668 18.0571 4.38403 17.7755L8.94699 15.2416L13.51 17.7755C13.5994 17.8694 13.7784 17.8694 13.9573 17.8694C14.0468 17.8694 14.0468 17.8694 14.1363 17.8694C14.5836 17.7755 14.9415 17.3063 14.852 16.7432L13.9573 11.3939L17.6256 7.64004C17.8045 7.54619 17.894 7.3585 17.894 7.1708Z" fill="#FFE600"/>
<path d="M47.8018 7.1708C47.8913 6.70157 47.5334 6.13849 47.086 6.13849L41.9862 5.38771L39.66 0.507669C39.5706 0.319975 39.4811 0.226128 39.3022 0.132281C38.8548 -0.14926 38.318 0.0384341 38.0496 0.507669L35.8128 5.38771L30.713 6.13849C30.4446 6.13849 30.2657 6.23233 30.1762 6.42003C29.8183 6.79542 29.8183 7.3585 30.1762 7.73388L33.8445 11.4878L32.9498 16.837C32.9498 17.0247 32.9498 17.2124 33.0393 17.4001C33.3077 17.8694 33.8445 18.0571 34.2918 17.7755L38.8548 15.2416L43.4178 17.7755C43.5072 17.8694 43.6862 17.8694 43.8651 17.8694C43.9546 17.8694 43.9546 17.8694 44.0441 17.8694C44.4914 17.7755 44.8493 17.3063 44.7598 16.7432L43.8651 11.3939L47.5334 7.64004C47.7123 7.54619 47.8018 7.3585 47.8018 7.1708Z" fill="#FFE600"/>
<path d="M77.7096 7.1708C77.799 6.70157 77.4412 6.13849 76.9938 6.13849L71.894 5.38771L69.5678 0.507669C69.4783 0.319975 69.3889 0.226128 69.2099 0.132281C68.7626 -0.14926 68.2258 0.0384341 67.9573 0.507669L65.7206 5.38771L60.6208 6.13849C60.3524 6.13849 60.1735 6.23233 60.084 6.42003C59.7261 6.79542 59.7261 7.3585 60.084 7.73388L63.7523 11.4878L62.8576 16.837C62.8576 17.0247 62.8576 17.2124 62.947 17.4001C63.2154 17.8694 63.7523 18.0571 64.1996 17.7755L68.7626 15.2416L73.3255 17.7755C73.415 17.8694 73.594 17.8694 73.7729 17.8694C73.8624 17.8694 73.8624 17.8694 73.9518 17.8694C74.3992 17.7755 74.7571 17.3063 74.6676 16.7432L73.7729 11.3939L77.4412 7.64004C77.6201 7.54619 77.7096 7.3585 77.7096 7.1708Z" fill="#FFE600"/>
<path d="M107.617 7.1708C107.707 6.70157 107.349 6.13849 106.902 6.13849L101.802 5.38771L99.4756 0.507669C99.3861 0.319975 99.2967 0.226128 99.1177 0.132281C98.6704 -0.14926 98.1336 0.0384341 97.8652 0.507669L95.6284 5.38771L90.5286 6.13849C90.2602 6.13849 90.0813 6.23233 89.9918 6.42003C89.6339 6.79542 89.6339 7.3585 89.9918 7.73388L93.6601 11.4878L92.7654 16.837C92.7654 17.0247 92.7654 17.2124 92.8548 17.4001C93.1232 17.8694 93.6601 18.0571 94.1074 17.7755L98.6704 15.2416L103.233 17.7755C103.323 17.8694 103.502 17.8694 103.681 17.8694C103.77 17.8694 103.77 17.8694 103.86 17.8694C104.307 17.7755 104.665 17.3063 104.575 16.7432L103.681 11.3939L107.349 7.64004C107.528 7.54619 107.617 7.3585 107.617 7.1708Z" fill="#FFE600"/>
<path d="M137.525 7.1708C137.615 6.70157 137.257 6.13849 136.809 6.13849L131.71 5.38771L129.383 0.507669C129.294 0.319975 129.204 0.226128 129.025 0.132281C128.578 -0.14926 128.041 0.0384341 127.773 0.507669L125.536 5.38771L120.436 6.13849C120.168 6.13849 119.989 6.23233 119.9 6.42003C119.542 6.79542 119.542 7.3585 119.9 7.73388L123.568 11.4878L122.673 16.837C122.673 17.0247 122.673 17.2124 122.763 17.4001C123.031 17.8694 123.568 18.0571 124.015 17.7755L128.578 15.2416L133.141 17.7755C133.231 17.8694 133.409 17.8694 133.588 17.8694C133.678 17.8694 133.678 17.8694 133.767 17.8694C134.215 17.7755 134.573 17.3063 134.483 16.7432L133.588 11.3939L137.257 7.64004C137.436 7.54619 137.525 7.3585 137.525 7.1708Z" fill="#FFE600"/>
</svg>
